<svg xmlns="http://www.w3.org/2000/svg" xmlns:dc="http://purl.org/dc/elements/1.1/" viewBox="0 0 100 100">

  <title property="dc:title">board-rider-tucknee</title>
  <desc property="dc:creator">rokma</desc>
  <title>board-rider-tucknee</title>

  <path fill-rule="evenodd" clip-rule="evenodd" d="M50 1C22.955 1 1 22.956 1 50c0 27.047 21.955 49 49 49 27.046 0 49-21.953 49-49C99 22.957 77.046 1 50 1zm1.576 47.625c2.28 1.403 4.53 3.027 6.745 4.878-1.653.56-3.564 1.265-5.68 2.12-.326-.237-.654-.458-.98-.685-.182-1.898-.267-3.407-.084-6.313zm21.98 26.418c-.433.346-.937.514-1.438.514-.745 0-1.48-.37-1.956-1.07-.066-.096-.133-.187-.2-.282 1.516-1.32 2.79-2.446 3.772-3.32.112.16.226.315.337.48.795 1.167.566 2.816-.513 3.678zM45.92 93.385c-.45.396-.992.59-1.53.59-.707 0-1.406-.33-1.886-.97-.846-1.13-.69-2.786.352-3.703l6.124-5.4c-2.48-5.787-3.65-10.508-4.174-15.494.156-.057.312-.104.464-.184 1.704-.895 3.336-1.694 4.9-2.423.166 2.373.464 4.606.97 6.877.644-.96 1.782-1.455 2.91-1.16 1.49.392 2.41 2.02 2.047 3.64l-.688 3.08 24.148-21.29c-3.66-.057-11.506.29-20.46 3.562-12.606 4.603-18.55 8.63-18.607 8.67-.403.277-.852.408-1.295.408-.235 0-.465-.048-.688-.12-.54-.02-1.073-.23-1.51-.647-6.814-6.518-8.565-11.217-9.363-21.317-5.775.295-11.625 2.03-17.467 5.248-1.196.66-2.657.144-3.265-1.15-.608-1.298-.13-2.882 1.064-3.54 4.93-2.717 9.854-4.498 14.736-5.364-1.333-1.282-2.472-2.977-3.25-4.973-.132-.34-.25-.682-.357-1.023l-3.304-2.985 2.715.285-.007-.052-5.538-3.757 5.52.54c0-.018.003-.036.005-.053l-7.647-5.528 8.814.9-7.508-4.204 13.982 1.524-.004.007c3.336.376 7.73 3.57 9.377 7.79 1.656 4.246.158 8.34-1.753 11.143 2.418.262 4.82.74 7.196 1.462-1.23 1.835-2.214 3.4-2.993 4.753-1.802-.453-3.617-.758-5.44-.922.45 5.458 1.2 8.83 3.164 11.96.898-6.6 5.198-12.91 8.856-18.26l.62-.91c.715-1.048 1.968-1.48 3.11-1.073 1.14.407 1.91 1.562 1.91 2.864 0 3.89-.06 7.323-.112 10.353-.026 1.485-.05 2.875-.064 4.2-1.756.765-3.614 1.62-5.58 2.594.002-2.133.04-4.41.083-6.905l.01-.593c-2.145 3.724-3.683 7.492-3.408 10.982 3.108-1.715 8.518-4.4 16.444-7.295 10.497-3.834 19.45-3.963 23.038-3.816l3.596-7.34c.63-1.285 2.1-1.773 3.283-1.09 1.186.68 1.636 2.274 1.007 3.558L86.52 50.81l4.536-4c1.04-.916 2.57-.747 3.416.38.847 1.128.69 2.786-.35 3.703L45.917 93.385zM59.84 61.847c2.362-.828 4.217-1.37 5.41-1.69 1.21 1.317 2.408 2.7 3.59 4.16-.978.87-2.258 2.003-3.774 3.325-1.712-2.095-3.456-4.022-5.226-5.795z"/>
</svg>
