
<svg viewBox="0 0 75 43" xmlns="http://www.w3.org/2000/svg"> 
  
    <g stroke="none" stroke-width="1" fill="none" fill-rule="evenodd">
        <g transform="translate(-361.000000, -1006.000000)" fill="#000000">
            <g id="Binaculars" transform="translate(361.000000, 1006.000000)">
                <path d="M66.9944997,11.9016676 L66.9984285,11.8858796 C66.9984285,11.8858796 61.990571,4.9944355 54.0662651,5.39571279 L54.0662651,5.37466218 C45.9284966,-5.86504903 39.6568884,4.01295071 39.6568884,4.01295071 L39.6660555,3.99190009 C39.0374542,3.64324933 38.2949188,3.43800586 37.5078575,3.43800586 C36.724725,3.43800586 35.9887376,3.63798668 35.3588266,3.98269045 L35.3745416,4.01295071 C35.3745416,4.01295071 29.1029335,-5.86504903 20.9690938,5.37466218 L20.9690938,5.39045014 C13.0447878,4.9944355 8.03693033,11.8858796 8.03693033,11.8858796 C3.21765322,14.826387 0,20.1508762 0,26.2252935 C0,35.4915098 7.47380828,43 16.6972237,43 C25.0720272,43 32.0036668,36.807173 33.2111053,28.7329476 C33.2111053,28.7329476 34.4643793,30.4235749 37.2472499,30.4235749 C40.0301205,30.4235749 41.7941331,28.7592609 41.7941331,28.7592609 C43.0120482,36.8176984 49.9384494,43 58.3027763,43 C67.5209534,43 75,35.4915098 75,26.2252935 C75,20.1614015 71.7980618,14.846122 66.9944997,11.9016676 L66.9944997,11.9016676 Z M16.1270938,38.1320755 C9.89166696,38.1320755 4.83870968,33.0486098 4.83870968,26.7768352 C4.83870968,20.5037605 9.89166696,15.4150943 16.1270938,15.4150943 C22.3612283,15.4150943 27.4193548,20.49856 27.4193548,26.7768352 C27.4193548,33.0486098 22.3612283,38.1320755 16.1270938,38.1320755 L16.1270938,38.1320755 Z M37.0967742,25.1509434 C34.8721678,25.1509434 33.0645161,23.3323776 33.0645161,21.0943396 C33.0645161,18.8563016 34.8670829,17.0377358 37.0967742,17.0377358 C39.3264654,17.0377358 41.1290323,18.8563016 41.1290323,21.0943396 C41.1290323,23.3323776 39.3264654,25.1509434 37.0967742,25.1509434 L37.0967742,25.1509434 Z M58.0645161,38.1320755 C51.8314518,38.1320755 46.7741935,33.0486098 46.7741935,26.7768352 C46.7741935,20.5037605 51.8262834,15.4150943 58.0645161,15.4150943 C64.2975805,15.4150943 69.3548387,20.49856 69.3548387,26.7768352 C69.3548387,33.0486098 64.3027488,38.1320755 58.0645161,38.1320755 L58.0645161,38.1320755 Z">
                    
                </path>
                <path d="M9.03380033,25.596961 C8.66600974,24.6460365 8.4469287,23.67827 8.34867417,22.7169811 C7.16696433,24.7522706 6.88680616,27.2617267 7.79897993,29.619605 C9.42814619,33.8249197 14.2466013,35.9508968 18.5618338,34.3573856 C19.4633855,34.023137 20.2680104,33.5476747 20.9677419,32.9750471 C15.8797508,33.3650039 10.9271916,30.485024 9.03380033,25.596961 L9.03380033,25.596961 Z">
                    
                </path>
                <path d="M52.5821874,25.596961 C52.2130691,24.6460365 51.9953158,23.67827 51.8970613,22.7169811 C50.7153514,24.7522706 50.4351933,27.2617267 51.347367,29.619605 C52.9765333,33.8249197 57.7989716,35.9508968 62.1102209,34.3573856 C63.0117726,34.023137 63.8163975,33.5476747 64.516129,32.9750471 C59.4228268,33.3650039 54.4755787,30.485024 52.5821874,25.596961 L52.5821874,25.596961 Z"></path>
            </g>
        </g>
    </g>
</svg>
