<svg xmlns="http://www.w3.org/2000/svg" viewBox="0 0 68 64">
    <g stroke="none" stroke-width="1" fill="none" fill-rule="evenodd" >
        <g transform="translate(-685.000000, -1918.000000)" fill="#000000">
            <path d="M736.434,1943.00522 C746.379,1943.00522 751.953,1934.70422 752.188,1934.35222 C752.469,1933.92322 752.566,1933.39922 752.461,1932.89922 C752.352,1932.39922 752.051,1931.96222 751.621,1931.68422 C746.355,1928.29822 741.383,1926.57922 736.832,1926.57922 C730.945,1926.57922 727.004,1929.37622 724.676,1931.82922 C723.688,1928.89522 721.715,1925.05922 717.809,1922.14922 C712.148,1917.93022 704.199,1916.92322 694.172,1919.15322 C693.145,1919.38422 692.492,1920.39522 692.715,1921.42722 C692.797,1921.81322 694.832,1930.92722 703.055,1936.05222 C708.18,1939.24722 714.48,1940.14922 721.82,1938.75122 L721.82,1949.26322 C720.012,1949.74322 718.34,1950.90322 716.449,1952.32122 C714.871,1953.50522 712.547,1954.48522 710.844,1955.11022 C708.375,1953.75122 705.469,1952.85622 700.727,1952.85622 C698.598,1952.85622 696.734,1953.44622 694.93,1954.01622 C693.078,1954.60222 691.332,1955.15722 689.219,1955.15722 C686.895,1955.15722 685,1957.04822 685,1959.37622 L685,1970.11422 C685,1972.44222 686.895,1974.33322 689.219,1974.33322 C693.23,1974.33322 699.504,1974.54022 700.887,1975.00122 C703.379,1975.83322 709.223,1979.29822 711.266,1980.56322 C711.293,1980.57922 711.316,1980.59522 711.344,1980.61022 C712.082,1981.02022 712.918,1981.23922 713.766,1981.23922 L733.266,1981.23922 C735.332,1981.23922 737.625,1979.32922 738.422,1978.00922 C740.977,1973.76622 750.148,1962.22022 750.238,1962.10222 C750.32,1961.99722 750.391,1961.88822 750.453,1961.76622 C751.641,1959.38822 750.73,1956.54022 748.336,1955.13822 C744.828,1953.08322 741.887,1956.13022 740.781,1957.27822 C740.547,1957.52422 740.301,1957.76622 740.059,1958.00922 C737.672,1957.03222 734.324,1955.48922 733.449,1954.72022 C733.156,1954.46222 732.871,1954.19622 732.582,1953.92722 C731.203,1952.65322 729.641,1951.20822 726.902,1949.83722 C726.484,1949.63022 726.074,1949.47322 725.66,1949.34522 L725.66,1939.82922 C729.293,1941.92722 732.906,1943.00522 736.434,1943.00522 L736.434,1943.00522 Z M740.516,1933.03222 C736.93,1931.68822 732.562,1932.16122 729.18,1932.92722 C730.996,1931.57122 733.512,1930.41122 736.828,1930.41122 C740.121,1930.41122 743.773,1931.54822 747.703,1933.79022 C745.812,1935.83322 741.891,1939.16522 736.426,1939.16522 C733.887,1939.16522 731.242,1938.44622 728.531,1937.04022 C731.516,1936.21222 735.918,1935.40322 739.164,1936.62222 C740.156,1936.99322 741.262,1936.49322 741.633,1935.50122 C742.012,1934.51322 741.508,1933.40722 740.516,1933.03222 L740.516,1933.03222 Z M705.117,1932.81722 C700.328,1929.84822 698.012,1925.09122 697.047,1922.48122 C704.93,1921.05922 711.125,1921.97022 715.48,1925.19222 C717.27,1926.51622 718.535,1928.10622 719.465,1929.67322 C716.176,1927.44622 711.859,1925.23922 707.633,1925.23922 C706.574,1925.23922 705.715,1926.09822 705.715,1927.15722 C705.715,1928.21622 706.574,1929.07522 707.633,1929.07522 C712.301,1929.07522 717.496,1932.77422 720.305,1935.10222 C714.309,1936.10222 709.203,1935.35222 705.117,1932.81722 L705.117,1932.81722 Z M732.074,1966.65722 C732.105,1966.66122 732.141,1966.66122 732.176,1966.66122 C732.672,1966.66122 733.086,1966.98522 733.246,1967.42722 C733.289,1967.54822 733.324,1967.67322 733.324,1967.80922 C733.324,1968.44622 732.809,1968.96222 732.176,1968.96222 C732.141,1968.96222 732.109,1968.96222 732.074,1968.96622 L717.562,1969.72722 C716.672,1969.69622 714.852,1968.54022 713.23,1967.42722 C712.75,1967.09522 712.281,1966.76622 711.867,1966.47322 C711.398,1966.14122 710.941,1965.82122 710.492,1965.51322 C709.512,1964.83322 708.574,1964.22322 707.719,1963.79822 C707.156,1963.51622 706.527,1963.54422 706.008,1963.80222 C705.648,1963.98122 705.34,1964.26622 705.145,1964.65322 C704.672,1965.60222 705.055,1966.75122 706,1967.22722 C706.988,1967.72022 708.281,1968.63822 709.648,1969.60622 C712.523,1971.64122 715.242,1973.56722 717.598,1973.56722 C717.629,1973.56722 717.664,1973.56722 717.699,1973.56322 L732.227,1972.80222 C734.953,1972.77022 737.156,1970.54822 737.156,1967.81322 C737.156,1967.68422 737.133,1967.55922 737.121,1967.43022 C737.082,1966.95422 737,1966.48922 736.836,1966.05922 C738.004,1965.09522 739.879,1963.49322 741.758,1961.70022 C742.355,1961.13022 742.957,1960.54022 743.531,1959.94222 C745.168,1958.25122 745.816,1958.11422 746.391,1958.45022 C746.898,1958.74722 747.273,1959.33322 747.074,1959.91522 C745.801,1961.52422 737.656,1971.84122 735.133,1976.03222 C734.797,1976.58722 733.676,1977.36022 733.262,1977.40722 L713.766,1977.40722 C713.582,1977.40722 713.398,1977.36422 713.234,1977.27822 C712.512,1976.83322 705.418,1972.47722 702.098,1971.36822 C699.625,1970.54422 690.934,1970.50122 689.219,1970.50122 C689.008,1970.50122 688.836,1970.32922 688.836,1970.11822 L688.836,1959.37622 C688.836,1959.16522 689.008,1958.99322 689.219,1958.99322 C691.922,1958.99322 694.133,1958.29422 696.086,1957.67322 C697.75,1957.14522 699.191,1956.68822 700.727,1956.68822 C703.574,1956.68822 705.551,1957.03222 707.219,1957.65322 C709.117,1958.36022 710.605,1959.43422 712.492,1960.79822 C713.855,1961.78622 715.402,1962.90722 717.391,1964.09122 C718.387,1964.68422 720.043,1965.14922 721.895,1965.51322 C725.871,1966.29022 730.773,1966.59122 732.074,1966.65722 L732.074,1966.65722 Z" ></path>
        </g>
    </g>
</svg>
