<svg xmlns="http://www.w3.org/2000/svg" viewBox="0 0 300 300">
<g>
	<path style="fill:#000000;" d="M74.845,87.063c0,18.984-15.391,34.328-34.293,34.328c-19.02,0-34.38-15.344-34.38-34.328   c0-18.938,15.345-34.328,34.38-34.328C59.454,52.735,74.845,68.125,74.845,87.063z"/>
	<path style="fill:#000000;" d="M225.156,87.063c0,18.984,15.395,34.328,34.297,34.328c19.016,0,34.425-15.344,34.425-34.328   c0-18.938-15.409-34.328-34.425-34.328C240.551,52.735,225.156,68.125,225.156,87.063z"/>
	<path style="fill:#000000;" d="M131.017,205.078c-0.778-7.312,2.034-14.062,6.795-18.984   c-29.058-5.547-40.983-19.719-51.326-32.547c-5.047-6.282-9.844-12.266-16.22-16.485c-0.183-0.109-0.422-0.109-0.577-0.266   c-5.438-4.499-12.31-7.343-19.875-7.343H31.25C14.066,129.454,0,143.485,0,160.672v86.594h81.051v-55.983   c11.828,10.358,28.559,20.202,54.262,24.483C133.156,212.654,131.485,209.141,131.017,205.078z"/>
	<path style="fill:#000000;" d="M268.797,129.454h-18.594c-7.532,0-14.45,2.859-19.844,7.343c-0.188,0.156-0.438,0.156-0.578,0.266   c-6.371,4.219-11.172,10.156-16.25,16.485c-11.359,14.062-24.266,30.109-60.309,34.095c-8.157,0.938-14.02,8.28-13.13,16.453   c0.816,7.608,7.266,13.233,14.767,13.233c0.551,0,1.094-0.047,1.69-0.082c30.544-3.403,49.45-14.263,62.45-25.778v55.777h81   v-86.574C300,143.485,285.938,129.454,268.797,129.454z"/>
</g>
</svg>
