<svg xmlns="http://www.w3.org/2000/svg" viewBox="0 0 64 75">
    <g stroke="none" stroke-width="1" fill="none" fill-rule="evenodd" >
        <g transform="translate(-375.000000, -2184.000000)" fill="#000000">
            <g  transform="translate(376.000000, 2185.000000)">
                <path d="M57.9554894,3.91842105 C55.1773617,1.14868421 51.4771489,-0.377631579 47.5513617,-0.377631579 C43.6189787,-0.377631579 39.9253617,1.14868421 37.147234,3.91842105 C34.3651489,6.69473684 32.8349362,10.3789474 32.8349362,14.3013158 C32.8349362,14.3578947 32.8402128,14.4144737 32.8402128,14.4763158 C28.572766,13.5039474 23.9095745,14.6763158 20.5853191,17.9921053 C17.0618723,21.5065789 15.9537872,26.5236842 17.262383,30.9802632 L-0.257234043,48.4447368 L0.124,56.7868421 L8.6773617,57.3526316 L11.7694468,54.2684211 L11.7694468,50.4289474 L15.6187234,50.4289474 L15.9841277,50.0644737 L15.9841277,46.225 L19.8334043,46.225 L20.1988085,45.8592105 L20.1988085,42.0197368 L24.0480851,42.0197368 L26.1877447,39.8868421 C30.6596596,41.1921053 35.6842979,40.0828947 39.2090638,36.5671053 C44.3511064,31.4368421 44.3511064,23.1157895 39.2090638,17.9868421 C38.5494894,17.3289474 37.8331915,16.7526316 37.0746809,16.2592105 C36.9572766,15.6171053 36.89,14.9644737 36.89,14.2960526 C36.89,11.4592105 37.9980851,8.78684211 40.0124255,6.78157895 C42.026766,4.77236842 44.702,3.66710526 47.5460851,3.66710526 C50.3901702,3.66710526 53.0693617,4.77236842 55.0797447,6.78157895 C56.6363404,8.33421053 57.6151489,10.2565789 58.0016596,12.2657895 C58.129617,12.9342105 58.1968936,13.6171053 58.1968936,14.2960526 C58.1968936,17.0197368 57.1613617,19.7394737 55.0797447,21.8105263 C54.1827234,22.7052632 53.1630213,23.3934211 52.0760426,23.9026316 C53.0034043,24.9302632 53.7856596,26.0605263 54.4148936,27.2736842 C55.6878723,26.6052632 56.8777447,25.7368421 57.9449362,24.6736842 C63.6951064,18.9578947 63.6951064,9.64473684 57.9554894,3.91842105 L57.9554894,3.91842105 Z M32.2465957,24.9302632 C30.8707234,23.5578947 30.8707234,21.3276316 32.2465957,19.9552632 C32.6489362,19.5539474 33.1277872,19.2710526 33.6330213,19.1065789 C34.3545957,21.1828947 35.535234,23.0855263 37.1366809,24.6842105 C37.1934043,24.7394737 37.2554043,24.7921053 37.3121277,24.8486842 C37.2870638,24.8789474 37.2606809,24.9092105 37.235617,24.9355263 C35.8597447,26.3078947 33.6277447,26.3078947 32.2465957,24.9302632 L32.2465957,24.9302632 Z" ></path>
                <path d="M46.0725957,23.0697368 C47.5104681,28.6105263 46.0620426,34.7421053 41.7233617,39.075 C38.564,42.2263158 34.3651489,43.9578947 29.8971915,43.9578947 C29.7322979,43.9578947 29.5621277,43.9421053 29.397234,43.9368421 L20.3122553,65.8118421 L23.8634043,73.3723684 L31.9840851,70.6328947 L33.6594043,66.6039474 L32.1845957,63.0578947 L35.7410213,61.5868421 L35.9415319,61.1092105 L34.4680426,57.5631579 L38.0231489,56.0934211 L38.2249787,55.6144737 L36.7501702,52.0684211 L40.3065957,50.5986842 L41.4608511,47.8131579 C46.092383,47.3092105 50.308383,44.3684211 52.2198298,39.7789474 C54.8634043,33.4105263 52.1116596,26.1592105 46.0725957,23.0697368 L46.0725957,23.0697368 Z" ></path>
            </g>
        </g>
    </g>
</svg>
