<svg  xmlns="http://www.w3.org/2000/svg" viewBox="0 0 300 300" >

<path style="" d="M109.118,210.35c-0.171-0.107-0.295-0.186-0.443-0.264c0,0,0,0,0,0.031  C108.807,210.193,108.978,210.279,109.118,210.35z"/>
<path style="  " d="M108.675,210.086c-0.039-0.031-0.136-0.078-0.186-0.109c0.05,0.047,0.147,0.078,0.186,0.142  C108.675,210.086,108.675,210.086,108.675,210.086z"/>
<g>
	<path style=" " d="M120.331,151.309h36.412l19.625-126.521c1.663-10.735-6.354-20.88-17.912-22.667   c-11.555-1.787-22.267,5.453-23.929,16.188L116.94,131.704c-0.521,2.78-4.629,2.625-4.89-0.249l-1.989-21.346l-8.467-90.821   c-1.01-10.844-11.263-19-22.903-18.238c-11.628,0.76-20.25,10.175-19.248,21.003l12.044,129.333h42.552L120.331,151.309z"/>
	<path style=" " d="M167.932,151.309h3.076c11.621,0,21.66,6.806,26.395,16.607l7.752-40.951   c1.648-8.684-4.086-17.089-12.77-18.736c-1.014-0.187-2.008-0.264-3.002-0.264c-7.667,0-14.3,5.484-15.736,13.035L167.932,151.309z   "/>
	<path style=" " d="M214.973,221.748c-11.434-2.16-19.818-11.326-21.513-22.232   c-5.379,6.385-13.442,10.471-22.453,10.471h-43.749c0.252,0.267,0.478,0.515,0.699,0.81c6.167,7.302,11.9,17.959,11.842,32.392   c0,1.522-0.629,2.875-1.604,3.838c-0.979,0.979-2.334,1.57-3.806,1.57c-3.002,0-5.406-2.439-5.406-5.438   c0.05-20.912-15.256-31.771-19.866-34.568c-0.14-0.075-0.295-0.153-0.443-0.248c-0.039-0.047-0.136-0.077-0.186-0.139   c-0.023-0.031-0.039-0.031-0.074-0.047c-0.357-0.22-0.699-0.482-1.025-0.763c-0.051-0.078-0.14-0.141-0.222-0.188   c-2.218-1.973-3.651-4.846-3.651-8.062h67.491c3.029,0,5.872-0.729,8.358-2.004c6.023-3.061,10.172-9.305,10.172-16.529   c0-1.6-0.209-3.106-0.586-4.6c-2.035-8-9.275-13.92-17.928-13.92h-50.09l-6.02,0.031l-2.164,0.031l-40.233,0.219l-4.451,0.031   c-6.381,0.061-11.628,4.707-12.673,10.781c-0.105,0.621-0.156,1.241-0.187,1.895c0,0.109-0.016,0.219-0.016,0.357v15.117   c0,2.95,0.046,5.809,0.136,8.62c2.16,76.173,30.139,100.08,87.465,100.08c61.897,0,87.407-29.36,90.918-80.86   c-4.06,2.438-8.758,3.805-13.729,3.805C218.298,222.213,216.62,222.043,214.973,221.748z"/>
	<path style=" " d="M241.99,139.929c-2.436-3.519-6.063-5.927-10.27-6.719c-1.01-0.187-2.004-0.295-2.998-0.295   c-7.679,0-14.277,5.484-15.703,13.065l-7.709,40.68l7.709-40.68l-7.709,40.68l-1.088,5.725c-1.643,8.686,4.086,17.09,12.774,18.721   c0.995,0.187,2.004,0.295,2.999,0.295c5.298,0,10.079-2.655,13-6.819c0.252-0.356,0.462-0.699,0.699-1.088   c0.221-0.371,0.408-0.761,0.621-1.164c0.136-0.265,0.268-0.545,0.408-0.84c0.088-0.187,0.151-0.39,0.209-0.591   c-0.074,0.201-0.14,0.404-0.209,0.591c-0.133,0.295-0.271,0.561-0.408,0.854c0.136-0.279,0.291-0.561,0.408-0.854   c0.069-0.187,0.151-0.39,0.209-0.591c0.031-0.108,0.066-0.217,0.113-0.317c0.108-0.317,0.213-0.613,0.311-0.924   c0.125-0.437,0.246-0.871,0.343-1.32l8.793-46.405C245.299,147.736,244.395,143.463,241.99,139.929z"/>
</g>
</svg>
