<svg xmlns="http://www.w3.org/2000/svg" viewBox="0 0 67 69">
    <g  stroke="none" stroke-width="1" fill="none" fill-rule="evenodd" >
        <g  transform="translate(1.000000, 1.000000)" fill="#000000">
            <path d="M38.723,41.613 C39.043,41.828 39.414,41.938 39.785,41.938 C40.156,41.938 40.527,41.828 40.848,41.613 C41.504,41.176 56.898,30.832 62.57,20.438 C63.973,18.266 64.715,15.754 64.715,13.172 C64.715,5.77 58.691,-0.25 51.293,-0.25 C45.852,-0.25 41.82,4.266 39.789,6.625 C37.754,4.266 33.723,-0.25 28.281,-0.25 C20.879,-0.25 14.855,5.77 14.855,13.172 C14.855,15.754 15.598,18.262 17,20.438 C22.672,30.832 38.066,41.18 38.723,41.613 L38.723,41.613 Z M28.281,3.586 C32.117,3.586 35.32,7.316 37.047,9.32 C38.117,10.566 38.707,11.254 39.785,11.254 C40.863,11.254 41.453,10.566 42.527,9.32 C44.25,7.316 47.457,3.586 51.293,3.586 C56.578,3.586 60.883,7.887 60.883,13.176 C60.883,15.035 60.344,16.848 59.32,18.41 C59.293,18.453 59.266,18.5 59.238,18.547 C54.859,26.637 43.348,35.172 39.789,37.688 C36.227,35.172 24.719,26.637 20.34,18.547 C20.312,18.5 20.289,18.453 20.258,18.41 C19.234,16.848 18.695,15.039 18.695,13.176 C18.691,7.887 22.992,3.586 28.281,3.586 L28.281,3.586 Z" ></path>
            <path d="M62.848,41.152 C59.34,39.098 56.398,42.145 55.293,43.289 C52.957,45.707 50.145,48.098 48.723,49.273 C48.117,49.004 47.453,48.848 46.75,48.844 C42.414,48.609 35.578,47.828 33.867,46.812 C32.027,45.719 30.559,44.652 29.258,43.711 C25.527,41.008 22.582,38.871 15.242,38.871 C13.113,38.871 11.25,39.461 9.445,40.031 C7.594,40.617 5.844,41.172 3.734,41.172 C1.406,41.172 -0.484,43.062 -0.484,45.391 L-0.484,56.129 C-0.484,58.457 1.406,60.348 3.734,60.348 C7.746,60.348 14.016,60.555 15.398,61.016 C17.891,61.848 23.738,65.312 25.777,66.578 C25.805,66.594 25.828,66.609 25.855,66.625 C26.598,67.031 27.434,67.25 28.281,67.25 L47.781,67.25 C49.844,67.25 52.141,65.34 52.934,64.02 C55.492,59.777 64.66,48.23 64.75,48.117 C64.832,48.012 64.902,47.898 64.965,47.781 C66.152,45.402 65.242,42.555 62.848,41.152 L62.848,41.152 Z M47.781,63.414 L28.281,63.414 C28.098,63.414 27.914,63.371 27.75,63.285 C27.027,62.84 19.934,58.48 16.613,57.375 C14.145,56.551 5.449,56.508 3.734,56.508 C3.523,56.508 3.352,56.336 3.352,56.125 L3.352,45.391 C3.352,45.176 3.523,45.008 3.734,45.008 C6.438,45.008 8.648,44.305 10.602,43.688 C12.27,43.16 13.707,42.703 15.242,42.703 C21.336,42.703 23.469,44.25 27.008,46.812 C28.371,47.801 29.918,48.922 31.906,50.105 C32.902,50.699 34.555,51.164 36.41,51.527 C40.391,52.305 45.297,52.605 46.594,52.676 C46.625,52.68 46.66,52.68 46.695,52.68 C47.328,52.68 47.848,53.195 47.848,53.832 C47.848,54.465 47.332,54.98 46.695,54.98 C46.66,54.98 46.629,54.984 46.594,54.984 L32.082,55.746 C30.926,55.703 28.199,53.773 26.387,52.492 C25.918,52.16 25.461,51.84 25.012,51.527 C24.031,50.848 23.094,50.242 22.238,49.812 C21.293,49.336 20.141,49.723 19.668,50.668 C19.195,51.613 19.578,52.766 20.523,53.242 C21.512,53.734 22.805,54.652 24.172,55.621 C27.047,57.656 29.766,59.582 32.121,59.582 C32.156,59.582 32.188,59.582 32.223,59.578 L46.754,58.812 C49.477,58.781 51.684,56.555 51.684,53.828 C51.684,53.211 51.57,52.621 51.363,52.074 C52.902,50.801 55.672,48.426 58.055,45.957 C59.688,44.266 60.34,44.129 60.914,44.465 C61.422,44.762 61.797,45.348 61.598,45.93 C60.324,47.539 52.18,57.855 49.656,62.043 C49.316,62.598 48.191,63.371 47.781,63.414 L47.781,63.414 Z" ></path>
        </g>
    </g>
</svg>
