<svg class="svg_stamp" xmlns="http://www.w3.org/2000/svg"  viewBox="0 0 57 63">

  <g stroke="none" stroke-width="1" fill="none" fill-rule="evenodd" >
      <g class="svg_stamp_look" transform="translate(-372.000000, -1925.000000)" >
          <g transform="translate(372.000000, 1925.000000)">
              <path d="M24.75,45.562 L21.625,42.75 L17.25,43.375 C14.438,43.688 11.625,41.812 11,39 L10.375,34.938 L10.062,34.938 L0.375,54.312 L11.625,52.75 L17.25,62.75 L25.375,46.188 C25.062,45.875 25.062,45.875 24.75,45.562 L24.75,45.562 Z" ></path>
              <path d="M46.938,34.938 L46,39 C45.375,41.5 43.188,43.375 40.688,43.375 L40.062,43.375 L35.688,42.75 L32.562,45.562 L31.938,46.188 L40.062,62.75 L45.688,53.062 L56.938,54.625 L46.938,34.938 Z"></path>
              <path d="M49.125,14 L43.812,11.5 L42.875,5.875 C42.562,4.625 41.312,3.688 40.062,4 L34.125,4.938 L29.75,0.875 C28.812,-0.062 27.25,-0.062 26.312,0.875 L21.938,4.938 L16.938,4 C15.375,3.688 14.438,4.625 14.125,5.875 L13.188,11.5 L7.875,14 C6.625,14.625 6.312,15.875 6.938,17.125 L9.438,22.125 L6.938,27.125 C6.312,28.375 6.938,29.625 7.875,30.25 L13.188,32.75 L14.125,38.375 C14.438,39.625 15.688,40.562 16.938,40.25 L22.875,39.312 L27.25,43.375 C28.188,44.312 29.75,44.312 30.688,43.375 L35.062,39.312 L41,40.25 C42.25,40.562 43.5,39.625 43.812,38.375 L44.75,32.75 L50.062,30.25 C51.312,29.625 51.625,28.375 51,27.125 L47.562,22.125 L50.062,17.125 C50.688,15.875 50.375,14.625 49.125,14 L49.125,14 Z" ></path>
          </g>
      </g>
  </g>
</svg>
