<svg xmlns="http://www.w3.org/2000/svg" viewBox="-29.055 -152.36 900 900">
  <title>burger</title>
  <path shape-rendering="geometricPrecision" d="M870.945-3.16c0 41.002-33.246 74.205-74.2 74.205H45.148C4.19 71.09-29.056 37.842-29.056-3.16c0-40.957 33.248-74.203 74.204-74.203h751.548c41 .014 74.247 33.262 74.247 74.204zm0 301.607c0 40.96-33.246 74.204-74.2 74.204H45.148c-40.958 0-74.205-33.243-74.205-74.202 0-41.003 33.248-74.203 74.204-74.203h751.548c41-.044 74.247 33.2 74.247 74.203zm0 299.992c0 40.956-33.246 74.203-74.2 74.203H45.148c-40.958 0-74.205-33.247-74.205-74.205 0-41.005 33.248-74.205 74.204-74.205h751.548c41-.044 74.247 33.2 74.247 74.204z"/>
</svg>
