<svg xmlns="http://www.w3.org/2000/svg" viewBox="123.31 0 595.28 595.28">
  <title>facebook</title>
  <path d="M685.83 32.74C664.01 10.92 637.72 0 606.97 0H234.93c-30.74 0-57.03 10.92-78.87 32.75-21.83 21.83-32.75 48.12-32.75 78.87v372.05c0 30.74 10.92 57.03 32.75 78.87 21.83 21.83 48.12 32.75 78.87 32.75h372.04c30.74 0 57.03-10.92 78.86-32.75s32.75-48.12 32.75-78.87V111.61c0-30.74-10.92-57.04-32.75-78.87zm-55.99 273.42h-67.82v246.09H460.48V306.16h-50.77v-84.88h50.77v-50.77c0-36.43 8.53-63.94 25.58-82.55 17.05-18.6 45.21-27.9 84.49-27.9h67.82v84.88h-42.63c-14.47 0-23.71 2.52-27.71 7.56-4 5.04-6.01 13.88-6.01 26.55v42.24h76.74l-8.92 84.87z" shape-rendering="geometricPrecision"/>
</svg>
