<svg xmlns="http://www.w3.org/2000/svg" viewBox="123.31 0 595.28 595.28">
  <title>feed</title>
  <path d="M420.95 0C256.56 0 123.31 133.26 123.31 297.64s133.26 297.64 297.64 297.64 297.64-133.26 297.64-297.64S585.33 0 420.95 0zM309.33 446.46c-20.55 0-37.21-16.66-37.21-37.21s16.66-37.21 37.21-37.21 37.21 16.66 37.21 37.21-16.66 37.21-37.21 37.21zm102.31 0c0-76.93-62.59-139.52-139.52-139.52v-55.81c107.7 0 195.33 87.62 195.33 195.33h-55.81zm111.62 0c0-67.08-26.12-130.15-73.55-177.58-47.43-47.43-110.5-73.56-177.58-73.56v-55.81c81.99 0 159.07 31.93 217.04 89.9 57.97 57.97 89.9 135.05 89.9 217.04h-55.81z" shape-rendering="geometricPrecision"/>
</svg>
