<svg xmlns="http://www.w3.org/2000/svg" viewBox="123.31 0 595.28 595.28">
  <title>instagram</title>
  <path d="M696.11 22.48C681.13 7.49 663.17 0 642.25 0H199.66c-20.93 0-38.88 7.5-53.87 22.48-14.99 14.98-22.48 32.94-22.48 53.87v442.58c0 20.92 7.49 38.88 22.48 53.87 14.99 14.99 32.95 22.49 53.87 22.49h442.58c20.92 0 38.88-7.5 53.87-22.49 14.99-14.98 22.48-32.94 22.48-53.87V76.35c-.01-20.93-7.49-38.88-22.48-53.87zM337.05 214.51c23.38-22.6 51.48-33.91 84.29-33.91 33.07 0 61.3 11.31 84.68 33.91 23.38 22.61 35.07 49.93 35.07 81.97 0 32.03-11.69 59.36-35.07 81.96-23.38 22.61-51.61 33.92-84.68 33.92-32.81 0-60.91-11.31-84.29-33.92-23.38-22.6-35.08-49.93-35.08-81.96 0-32.04 11.7-59.36 35.08-81.97zm314.11 288.54c0 6.71-2.33 12.33-6.98 16.85-4.66 4.52-10.21 6.78-16.67 6.78H213.22c-6.72 0-12.34-2.26-16.86-6.78-4.52-4.51-6.78-10.14-6.78-16.85V251.91h54.64c-5.17 16.28-7.75 33.2-7.75 50.77 0 49.61 18.09 91.92 54.26 126.93 36.18 35 79.71 52.52 130.61 52.52 33.59 0 64.59-8.02 93.02-24.03 28.42-16.03 50.89-37.79 67.43-65.3 16.54-27.52 24.81-57.56 24.81-90.11 0-17.57-2.59-34.49-7.76-50.77h52.33l-.01 251.13zm0-346.09c0 7.49-2.58 13.82-7.76 18.99-5.17 5.17-11.49 7.75-18.99 7.75h-67.43c-7.49 0-13.82-2.58-18.99-7.75-5.17-5.17-7.75-11.5-7.75-18.99V93.01c0-7.23 2.58-13.5 7.75-18.8 5.17-5.29 11.5-7.94 18.99-7.94h67.43c7.5 0 13.82 2.65 18.99 7.94 5.17 5.3 7.76 11.56 7.76 18.8v63.95z" shape-rendering="geometricPrecision"/>
</svg>
