<svg xmlns="http://www.w3.org/2000/svg" viewBox="123.31 0 595.28 595.28">
  <title>junglestar</title>
  <path shape-rendering="geometricPrecision" d="M622.74 79.02v256.71c0 68.61-18.15 119.06-54.32 151.2-36.16 32.14-84.08 48.66-143.61 49.26-60.86.6-109.68-14.14-146.44-44.35-36.76-30.36-55.06-69.2-55.06-116.82 0-20.98 10.27-31.55 30.66-31.85 21.73-.15 32.59 7.74 32.59 23.81 0 35.27 12.35 62.95 36.91 83.04 24.56 20.09 57.74 30.06 99.41 29.62 43.46-.45 77.09-12.5 100.75-36.31 23.81-23.66 35.72-59.38 35.72-107V34.23C517.97 12.35 470.95 0 420.94 0 256.8 0 123.31 133.49 123.31 297.64c0 164.15 133.49 297.64 297.64 297.64 164.15 0 297.64-133.49 297.64-297.64-.01-86.32-36.91-164.15-95.85-218.62zM196.23 273.68l82-78.13-19.5-110.42 101.35 51.94 101.35-52.24-19.2 110.27 82 78.13-113.25 16.22-50.6 100.45-50.75-100.3-113.4-15.92z"/>
</svg>
