<svg xmlns="http://www.w3.org/2000/svg" viewBox=".45 595.14 595.27 595.28">
  <title>
    qr
  </title>
  <path fill="none" d="M.44 595.14h595.28v595.28H.44V595.14z"/>
  <path d="M24.25 785.63H.45v47.62h23.8v-47.62zm0 71.43H.45v23.8h23.8v-23.8zm142.87-261.92H.44v166.68h166.68V595.14zM143.32 738H24.25V618.96H143.3V738zM48.06 904.7h-23.8v23.82h47.62V904.7h23.8v-23.8H48.1v23.8zm71.43-261.92H48.05v71.44h71.43v-71.44zM71.86 928.5v47.62h-23.8V952.3H24.25v47.63h71.43v-23.8h23.8V952.3h47.62v-23.8h-47.6v-23.82H95.7v23.8H71.87zm-23.8 214.3h71.42v-71.44H48.06v71.43zm47.6-285.74v23.8h47.63v-23.8H95.7zm71.44 142.87v-23.8h-47.6v23.8h47.62zM.45 1190.43h166.68v-166.7H.44v166.7zm23.8-142.88H143.3v119.06H24.27v-119.03zm166.7-333.35h23.8v-23.82h-23.8v23.82zm0 23.8v23.82h23.8v-23.8h-23.8zm0 238.12h23.8V928.5h-23.8v47.62zm23.8 23.8h-23.8V1119h47.6v-23.8h-23.8v-95.25zm-23.8 190.5h47.6v-23.82h-47.6v23.82zm47.6-500.04v-23.8h-23.8v23.8h23.8zm-23.8 95.25H71.88v23.8h-23.8v23.82h23.8v23.8h23.8v-23.8h23.82v-23.8h47.62v23.8h-23.8v23.8h23.8v23.82h-23.8v23.8h47.6v-23.8h23.82v-23.8h23.8V761.8h-23.8v23.8zm0 47.62h-23.8v-23.8h23.8v23.8zm23.8 95.25v-47.63h-23.8v47.62h23.8zm0-190.5v23.82h23.83v-23.8h-23.82zm0 357.17h23.83v-23.8h-23.82v23.8zm23.83 71.43v-47.62h-23.82v47.62h23.8zm23.8-547.65v-23.8h-95.24v71.42h23.8v-23.8h47.64v-23.82h23.8zm-23.8 23.8v23.82h23.8v-23.8h-23.8zm119.05 214.3v-47.6h47.62v-23.82H333.8v23.8h23.8v23.82H310v-47.62h23.8v-23.8H310V738h23.8v23.82h23.8v-71.44h-23.8v-47.62H310v23.8h-23.82v23.83h23.8v23.8h-47.6V738h23.8v23.82h-23.8v142.86h47.6v-47.62h71.44zm-47.62 166.7v-23.82h-71.43v-23.8h23.8V952.3H310v-23.8h-47.63v23.8h-23.82v71.44h23.8v23.8h23.82v-23.8h47.63zm-23.8 95.23h-23.82v23.8h23.8V1119zm47.6-523.84h-23.8v23.8h23.8v-23.8zm47.63 0h-23.8v23.8h23.8v-23.8zm0 47.62h-23.8v23.8h23.8v-23.8zm0 47.63h-23.8v23.8h23.8v-23.84zm0 47.6h-23.8v23.8h23.8V738zm0 119.04v23.8h23.8v-23.8h-23.8zm-23.8 333.36h71.42v-23.8h-71.43v23.8zm47.6-285.73h23.82v-23.8h-23.8v23.8zm23.82 119.06h-23.8v23.8h23.8v-23.8zm0 95.24v47.62h47.62v-47.64h-47.62zm95.25-476.22h-71.44v71.44h71.44v-71.46zm-47.63 547.66h23.8v-23.8h-23.8v23.8zm23.8-380.96h-23.8v-23.8h-23.8v23.8h-23.82v71.43h23.8v-23.8h23.82v23.8h71.44v23.8h23.84v-71.42h-23.8v23.8H524.3v-23.8h47.62v-23.8h23.82v-23.82H524.3v23.8zM548.1 928.5h-47.63v-23.82h-23.8v23.82h-71.44v23.8h-23.8v-23.8h23.8v-23.82h-23.8v-23.8H357.6v23.8H310v23.82h23.8v23.8h23.8v23.82h-23.8v23.8h23.8v23.82h23.82v23.8H333.8v23.82H310v-23.8h-23.82v47.6h47.62v71.45H310v23.84h47.6V1119h47.63v23.8h23.8V1119h23.82v-23.8h47.63v23.8h23.8v-47.63h-23.8v-23.8h23.8v-23.82h-23.8v-47.62h-71.44v-23.8h95.24v47.6h23.82v23.82h23.8v-47.62h-23.8v-23.8h23.8v23.8h23.82V928.5h-23.8v-23.82H548.1v23.82zm-71.44 71.43v71.43h-71.43v-71.43h71.43zm71.44 47.62v71.43h-23.82v47.62h47.63v23.82h23.84v-166.68h-23.8v23.8H548.1zm-119.06-452.4V761.8h166.68V595.14H429.04zM571.9 738H452.86V618.96H571.9V738z"/>
</svg>
