<svg xmlns="http://www.w3.org/2000/svg" viewBox="123.31 0 595.28 595.28">
  <title>linkedin</title>
  <path d="M685.82 32.74C664 10.92 637.71 0 606.97 0H234.92c-30.74 0-57.03 10.92-78.87 32.74-21.83 21.83-32.74 48.12-32.74 78.87v372.05c0 30.74 10.92 57.04 32.74 78.87 21.83 21.83 48.12 32.75 78.87 32.75h372.05c30.74 0 57.04-10.92 78.86-32.75 21.83-21.83 32.75-48.12 32.75-78.87V111.61c-.01-30.74-10.92-57.04-32.76-78.87zM304.68 498.38h-89.52V229.42h89.52v268.96zm-8.14-318.75c-9.3 8.91-21.57 13.37-36.82 13.37h-.39c-14.73 0-26.67-4.46-35.85-13.37-9.18-8.92-13.76-19.96-13.76-33.13 0-13.43 4.72-24.55 14.15-33.33 9.43-8.79 21.64-13.18 36.62-13.18s27 4.4 36.04 13.18 13.69 19.9 13.95 33.33c.01 13.16-4.64 24.21-13.94 33.13zm330.19 318.75H537.2V354.6c0-40.55-14.98-60.84-44.95-60.84-11.37 0-20.93 3.17-28.68 9.5-7.76 6.33-13.57 14.02-17.44 23.06-1.81 4.65-2.71 11.88-2.71 21.7v150.37H353.9c.77-162.25.77-251.91 0-268.96h89.52v37.97c18.82-29.43 45.55-44.17 80.22-44.17 31.01 0 55.94 10.21 74.8 30.62s28.29 50.51 28.29 90.29v154.24z"/>
</svg>
