<svg xmlns="http://www.w3.org/2000/svg" viewBox="123.31 0 595.28 595.28">
  <title>localphone</title>
  <path d="M243.02 257.62c47.62 93.59 124.35 169.99 217.94 217.94l72.76-72.76c8.93-8.93 22.16-11.91 33.73-7.94 37.04 12.24 77.06 18.85 118.06 18.85 18.19 0 33.07 14.88 33.07 33.07V562.2c0 18.19-14.88 33.07-33.07 33.07-310.54 0-562.2-251.67-562.2-562.2C123.31 14.88 138.19 0 156.38 0h115.75c18.19 0 33.07 14.88 33.07 33.07 0 41.34 6.61 81.02 18.85 118.06 3.64 11.57.99 24.47-8.27 33.73l-72.76 72.76z"/>
</svg>
