<svg xmlns="http://www.w3.org/2000/svg" width="1000" height="1000">
  <path fill="#00E300" d="M252.366 382.271c0 39.126 31.718 70.844 70.845 70.844s70.845-31.718 70.845-70.844c0-39.127-31.718-70.846-70.845-70.846s-70.845 31.719-70.845 70.846zm306.32 258.051c-84.155 29.178-173.605-7.605-199.398-81.996a9.928 9.928 0 0 0-.741-1.627 54.089 54.089 0 0 0-1.282-4.314c-9.703-27.986-40.258-42.809-68.244-33.105-27.987 9.705-42.809 40.259-33.105 68.246a54.451 54.451 0 0 0 1.485 3.77c.08.731.234 1.465.485 2.189 21.124 60.924 67.525 108.926 130.655 135.164 62.728 26.074 134.528 27.517 202.179 4.061 67.648-23.455 123.147-69.035 156.271-128.342 33.338-59.687 40.064-126.11 18.94-187.035a10.142 10.142 0 0 0-.813-1.766 54.295 54.295 0 0 0-1.243-4.163c-9.704-27.987-40.257-42.809-68.245-33.105-27.986 9.704-42.808 40.258-33.104 68.245a54.03 54.03 0 0 0 1.527 3.867c.084.696.238 1.392.477 2.08 25.793 74.392-21.688 158.652-105.844 187.831zm387.695-261.741l-.042-.15c-13.087-45.599-32.915-86.843-58.933-122.585-20.133-27.656-44.381-52.584-72.325-74.383h87.92l.001-.075c.154.001.307.012.461.012 30.789 0 55.75-24.961 55.75-55.75 0-30.609-24.672-55.445-55.211-55.736v-.049H472.131c-5.523 0-10 4.477-10 10v412.833c0 .823.11 1.619.298 2.384.61 29.847 24.979 53.859 54.971 53.859 30.375 0 54.999-24.625 54.999-55 0-.278-.017-.551-.021-.828.005-.138.021-.274.021-.415v-311.09c80.443 2.348 146.372 33.233 196.089 91.895 49.513 58.048 74.607 128.217 74.607 208.583 0 100.149-33.305 181.641-98.99 242.211-62.373 57.252-144.505 86.289-244.097 86.289-98.701 0-180.837-29.483-244.128-87.632-30.664-28.118-55.077-63.134-72.568-104.081-17.522-41.056-26.408-91.544-26.408-150.06 0-58.115 13.18-110.715 39.174-156.341 25.957-45.517 71.644-88.375 108.34-107.051 7.457-3.795 14.22-7.24 20.285-10.634 22.778-8.215 39.063-30.016 39.063-55.625 0-32.651-26.469-59.121-59.121-59.121a58.816 58.816 0 0 0-31.942 9.384c-29.467 14.924-56.692 32.976-81.176 53.859-30.689 26.177-57.908 57.504-80.902 93.112l-.054.085c-21.629 34.248-38.982 73.042-51.577 115.306C46.39 394.161 40 444.697 40 501.996c0 57.786 12.123 114.531 36.032 168.658 23.919 54.148 57.1 100.819 98.622 138.717 43.242 40.078 92.582 70.562 146.653 90.61 53.963 20.009 114.087 30.154 178.702 30.154 65.459 0 125.995-9.798 179.925-29.12 54.109-19.388 103.029-48.879 145.398-87.656 41.543-37.911 74.737-84.59 98.653-138.729C947.883 620.525 960 565.348 960 510.628c0-54.17-4.582-98.598-13.619-132.047z"/>
</svg>
