<svg xmlns="http://www.w3.org/2000/svg" viewBox="0 0 595.28 595.28">
  <path d="M6.74 282.6c-1.25 0-2.23.95-2.4 2.32L0 317.98l4.35 32.5c.16 1.37 1.14 2.32 2.4 2.32 1.2 0 2.17-.94 2.36-2.3v-.02l5.17-32.5L9.1 284.9c-.17-1.35-1.16-2.3-2.36-2.3zm24.48-18.08c-.2-1.42-1.22-2.4-2.48-2.4s-2.3 1-2.47 2.4l-5.85 53.45 5.85 52.28c.17 1.4 1.2 2.4 2.47 2.4 1.25 0 2.27-.98 2.47-2.4l6.67-52.28-6.65-53.45zm92.2-49.3c-2.4 0-4.37 1.95-4.5 4.45l-4.65 98.36 4.66 63.57c.12 2.48 2.1 4.44 4.5 4.44s4.36-1.97 4.5-4.46v.02l5.28-63.57-5.26-98.36c-.14-2.5-2.12-4.46-4.5-4.46zm-47.7 34.17c-1.85 0-3.36 1.46-3.5 3.43L66.96 318l5.25 63.05c.15 1.95 1.66 3.43 3.5 3.43 1.83 0 3.33-1.48 3.5-3.43L85.15 318l-5.96-65.18c-.17-1.95-1.66-3.43-3.5-3.43zm96.22 136.63c2.98 0 5.4-2.4 5.52-5.48l4.57-62.5-4.57-130.94c-.12-3.07-2.55-5.47-5.52-5.47-3 0-5.42 2.4-5.52 5.48l-4.05 130.94 4.05 62.52c.1 3.06 2.5 5.47 5.52 5.47zm99.3.3c4.08 0 7.47-3.38 7.54-7.53v.05-.05l3.2-60.7-3.2-151.23c-.07-4.15-3.46-7.52-7.55-7.52-4.1 0-7.5 3.37-7.55 7.53l-2.85 151.18 2.85 60.8c.05 4.1 3.44 7.47 7.55 7.47zm-50.04-.25c3.56 0 6.44-2.86 6.53-6.5v.04l3.88-61.55-3.87-131.9c-.1-3.65-2.97-6.5-6.53-6.5-3.6 0-6.46 2.86-6.54 6.5l-3.45 131.9 3.47 61.53c.07 3.62 2.94 6.48 6.53 6.48zm-121.72-.57c2.12 0 3.83-1.7 4-3.92L109.1 318l-5.62-60.48c-.16-2.23-1.87-3.92-4-3.92-2.15 0-3.86 1.7-4 3.94L90.52 318l4.95 63.57c.14 2.24 1.86 3.94 4 3.94zm-47.35-3.47c1.55 0 2.8-1.22 2.98-2.9L61.43 318l-6.3-63.43c-.2-1.7-1.45-2.92-3-2.92-1.57 0-2.83 1.23-2.98 2.92L43.58 318l5.56 61.1c.16 1.7 1.42 2.93 3 2.93zm194-198.05c-3.9 0-7 3.08-7.07 7.02l-3.15 127.08 3.16 61.15c.08 3.9 3.18 6.97 7.06 6.97 3.86 0 6.95-3.08 7.04-7v.04l3.53-61.15-3.54-127.1c-.1-3.94-3.18-7.02-7.04-7.02zm-98.54 202.17c2.67 0 4.87-2.18 5-4.97l4.92-63.15-4.92-120.85c-.13-2.8-2.34-4.97-5-4.97-2.7 0-4.9 2.2-5.03 4.98l-4.35 120.85 4.36 63.17c.1 2.77 2.3 4.95 5 4.95zm54.9-5.95v-.03l4.22-62.1-4.22-135.36c-.1-3.35-2.75-6-6.03-6-3.3 0-5.94 2.64-6.03 6l-3.75 135.36 3.75 62.13c.1 3.3 2.74 5.95 6.03 5.95 3.28 0 5.9-2.63 6.03-5.97v.02zm319.56-140.16c-10.03 0-19.6 2.03-28.32 5.68-5.83-66-61.16-117.75-128.66-117.75-16.52 0-32.6 3.25-46.84 8.75-5.53 2.14-7 4.34-7.05 8.6v232.4c.05 4.47 3.52 8.2 7.9 8.64.2.02 201.65.12 202.96.12 40.44 0 73.22-32.8 73.22-73.23 0-40.43-32.78-73.2-73.22-73.2zm-225.83-94.92c-4.4 0-8 3.6-8.07 8.05l-3.3 164.94 3.3 59.87c.07 4.37 3.68 7.98 8.08 7.98 4.38 0 8-3.6 8.06-8.04v.08l3.6-59.87-3.6-164.94c-.08-4.42-3.7-8.04-8.07-8.04zM59.13 433.05c-8.66-2.04-11-3.13-11-6.56 0-2.43 1.95-4.93 7.8-4.93 5 0 8.9 2.03 12.4 5.62l7.9-7.66c-5.16-5.38-11.4-8.58-19.9-8.58-10.8 0-19.53 6.1-19.53 16 0 10.77 7.03 13.97 17.1 16.3 10.3 2.34 12.17 3.9 12.17 7.42 0 4.14-3.05 5.93-9.52 5.93-5.23 0-10.15-1.78-13.97-6.24l-7.9 7.02c4.15 6.1 12.1 9.9 21.24 9.9 14.92 0 21.47-7 21.47-17.4 0-11.85-9.6-14.8-18.27-16.83zm50.27-22.1c-14.9 0-23.72 11.55-23.72 28.18s8.8 28.17 23.72 28.17c14.9 0 23.73-11.54 23.73-28.17 0-16.63-8.82-28.18-23.73-28.18zm0 45.5c-8.82 0-12.5-7.56-12.5-17.3 0-9.77 3.68-17.34 12.5-17.34 8.83 0 12.5 7.58 12.5 17.34 0 9.75-3.67 17.32-12.5 17.32zm67.84-13.96c0 8.73-4.3 14.1-11.24 14.1s-11.16-5.53-11.16-14.28V411.8H143.9v30.7c0 15.9 8.9 24.8 22.1 24.8 13.88 0 22.16-9.13 22.16-24.97V411.8h-10.93v30.7zm58.06-7.58c0 3.04.16 9.9.16 11.94-.7-1.4-2.5-4.14-3.8-6.17l-19.38-28.9h-10.45v54.66h10.77V442.4c0-3.03-.16-9.9-.16-11.92.7 1.4 2.5 4.13 3.82 6.17l20.06 29.8h9.76V411.8H235.3v23.12zm41.9-23.12h-17.08v54.65h16.3c14.05 0 27.95-8.12 27.95-27.32 0-19.98-11.54-27.33-27.16-27.33zm-.77 44.04h-5.38v-33.4h5.78c11.56 0 16.32 5.53 16.32 16.7 0 10-5.25 16.7-16.72 16.7zm61.74-34.03c4.92 0 8.04 2.2 10 5.94l10.14-4.68c-3.43-7.1-9.67-12.1-19.98-12.1-14.27 0-24.27 11.55-24.27 28.18 0 17.25 9.6 28.17 23.88 28.17 9.92 0 16.47-4.6 20.22-12.32l-9.2-5.47c-2.9 4.86-5.8 6.96-10.7 6.96-8.2 0-12.96-7.5-12.96-17.32 0-10.15 4.7-17.33 12.87-17.33zm40.53-10h-10.92v54.65h32.84v-10.78H378.7V411.8zm50.7-.85c-14.9 0-23.72 11.55-23.72 28.18s8.8 28.17 23.73 28.17c14.92 0 23.74-11.54 23.74-28.17 0-16.63-8.82-28.18-23.73-28.18zm0 45.5c-8.8 0-12.48-7.56-12.48-17.3 0-9.77 3.67-17.34 12.5-17.34 8.8 0 12.47 7.58 12.47 17.34 0 9.75-3.68 17.32-12.5 17.32zm67.83-13.96c0 8.73-4.28 14.1-11.23 14.1-6.96 0-11.17-5.53-11.17-14.28V411.8H463.9v30.7c0 15.9 8.9 24.8 22.1 24.8 13.9 0 22.16-9.13 22.16-24.97V411.8h-10.93v30.7zm41.68-30.7h-17.07v54.65h16.3c14.06 0 27.95-8.12 27.95-27.32 0-19.98-11.55-27.33-27.17-27.33zm-.77 44.04h-5.38v-33.4h5.78c11.54 0 16.3 5.53 16.3 16.7 0 10-5.23 16.7-16.7 16.7z"/>
</svg>
