<svg xmlns="http://www.w3.org/2000/svg" viewBox="123.307 0 595.275 595.281">
  <title>twitter</title>
  <path d="M718.582 113.317c-23.417 10.075-46.844 16.365-70.25 18.89 26.438-15.863 44.32-38.273 53.64-67.23-24.183 14.348-49.992 24.167-77.438 29.457-24.176-25.684-53.886-38.53-89.144-38.53-33.74 0-62.51 11.896-86.308 35.693-23.8 23.796-35.695 52.564-35.695 86.307 0 9.062 1.007 18.382 3.024 27.95-49.86-2.518-96.63-15.043-140.32-37.58-43.69-22.54-80.77-52.57-111.24-90.09-11.08 18.883-16.62 39.407-16.62 61.568 0 20.9 4.91 40.292 14.734 58.168 9.818 17.876 23.04 32.356 39.663 43.436-19.644-.757-38.025-5.92-55.147-15.49v1.512c0 29.463 9.253 55.332 27.76 77.622 18.508 22.29 41.864 36.326 70.065 42.115-10.572 2.77-21.277 4.154-32.102 4.154-7.052 0-14.733-.637-23.042-1.887 7.808 24.422 22.16 44.502 43.06 60.242 20.9 15.743 44.574 23.856 71.014 24.366-44.315 34.743-94.803 52.12-151.46 52.12-10.83 0-20.65-.496-29.463-1.51 56.658 36.514 119.106 54.764 187.35 54.764 43.31 0 83.976-6.858 121.993-20.58 38.03-13.724 70.51-32.106 97.456-55.15 26.94-23.038 50.17-49.544 69.684-79.51 19.514-29.966 34.05-61.25 43.626-93.86 9.57-32.613 14.352-65.28 14.352-98.02 0-7.05-.125-12.335-.38-15.864 23.925-17.366 44.322-38.395 61.193-63.07z" shape-rendering="geometricPrecision"/>
</svg>
