<svg xmlns="http://www.w3.org/2000/svg" viewBox="123.307 0 595.275 595.281">
  <title>youtube</title>
  <path shape-rendering="geometricPrecision" d="M658.46 307.6c-2.874-13.07-9.247-24.03-19.098-32.886-9.856-8.854-21.21-14.062-34.057-15.61-40.743-4.428-102.195-6.644-184.363-6.644-82.165 0-143.506 2.215-184.035 6.643-13.062 1.55-24.467 6.757-34.216 15.61-9.74 8.86-16.16 19.82-19.26 32.886-5.75 25.69-8.63 64.44-8.63 116.27 0 52.7 2.88 91.46 8.64 116.27 2.883 13.06 9.25 24.02 19.106 32.87 9.854 8.86 21.204 13.95 34.047 15.28 40.753 4.65 102.21 6.98 184.37 6.98 82.156 0 143.62-2.33 184.36-6.98 12.846-1.33 24.137-6.42 33.886-15.28 9.75-8.86 16.17-19.82 19.27-32.88 5.76-25.7 8.642-64.45 8.642-116.27-.002-52.71-2.89-91.47-8.642-116.27h.003zm-343.146 33.558H279.77v189.008h-33.22V341.158h-34.88V309.93h103.645v31.228zM405 530.166h-29.563v-17.938c-11.958 13.512-23.256 20.264-33.885 20.264-10.185 0-16.61-4.1-19.265-12.29-1.77-5.315-2.66-13.4-2.66-24.25V366.067h29.565V486.98c0 7.086.11 10.963.336 11.63.664 4.65 2.988 6.976 6.977 6.976 5.978 0 12.292-4.65 18.934-13.953V366.066H405v164.1zm112.945-49.162c0 16.166-.995 27.242-2.98 33.227-3.77 12.17-11.627 18.27-23.586 18.27-10.63 0-20.93-6.09-30.9-18.26v15.94h-29.56V309.94h29.56v72.086c9.53-11.952 19.82-17.935 30.9-17.935 11.96 0 19.81 6.2 23.58 18.6 1.98 5.76 2.98 16.72 2.98 32.89v65.43zm112.278-27.237h-59.458v28.9c0 15.28 5.09 22.918 15.276 22.918 7.31 0 11.74-3.984 13.29-11.965.44-2.21.67-8.963.67-20.258h30.23v4.318c0 10.852-.22 17.27-.66 19.27-.66 5.972-2.98 11.954-6.97 17.933-7.97 11.736-19.936 17.605-35.88 17.605-15.274 0-27.234-5.648-35.875-16.94-6.417-8.194-9.63-21.036-9.63-38.534v-57.47c0-17.497 3.1-30.343 9.296-38.536 8.64-11.295 20.486-16.936 35.55-16.936 14.84 0 26.58 5.64 35.21 16.936 5.984 8.195 8.97 21.04 8.97 38.535v34.223zm-154.8-62.78c-5.1 0-10.076 2.442-14.947 7.312v99.97c4.87 4.87 9.85 7.31 14.946 7.31 8.63 0 12.956-7.42 12.956-22.26v-70.08c0-14.84-4.32-22.26-12.956-22.26zm110.29 0c-9.967 0-14.948 7.53-14.948 22.583v15.28h29.894v-15.28c0-15.06-4.99-22.584-14.95-22.584v.002zM296.05 132.543v90.026h33.22v-90.03L369.46 0h-33.883l-22.584 87.367L289.407 0h-35.21c6.2 18.604 13.396 39.31 21.593 62.12 10.408 30.558 17.16 54.036 20.26 70.422zm117.92 92.35c15.278 0 27.015-5.646 35.21-16.94 6.2-8.195 9.3-21.263 9.3-39.2V110.62c0-17.715-3.102-30.672-9.3-38.868-8.195-11.293-19.932-16.94-35.21-16.94-14.844 0-26.47 5.647-34.88 16.94-6.2 8.196-9.3 21.153-9.3 38.868v58.135c0 17.715 3.097 30.783 9.3 39.2 8.415 11.292 20.036 16.94 34.88 16.938zm-14.29-120.255c0-15.282 4.763-22.923 14.287-22.923 9.522 0 14.28 7.64 14.28 22.923v69.757c0 15.506-4.758 23.253-14.28 23.253-9.525 0-14.288-7.75-14.288-23.253v-69.757zM505.317 224.89c11.078 0 22.487-6.863 34.22-20.597v18.27h30.23V56.803h-30.23v126.563c-6.645 9.524-12.953 14.283-18.938 14.283-3.99 0-6.32-2.44-6.98-7.31-.23-.44-.34-4.32-.34-11.63V56.8h-30.23v130.885c0 11.293.89 19.595 2.66 24.913 2.88 8.194 9.41 12.29 19.6 12.29z"/>
</svg>
