<svg xmlns="http://www.w3.org/2000/svg" xmlns:dc="http://purl.org/dc/elements/1.1/" viewBox="0 0 100 100">

  <title property="dc:title">skateboarding</title>
  <desc property="dc:creator">rokma</desc>
  <title>skateboarding</title>
  
  <path d="M49.94 1c-8.55 0-17.006 2.27-24.45 6.57C2.09 21.076-5.953 51.1 7.555 74.495 16.282 89.61 32.56 99 50.03 99c8.207 0 16.312-2.11 23.532-6.08.276-.136.547-.283.815-.436.033-.02.07-.036.104-.056h.002c11.333-6.544 19.44-17.108 22.826-29.75 3.388-12.64 1.65-25.843-4.894-37.176C83.688 10.39 67.412 1 49.94 1zM19.96 70.147l-9.005 5.2c-.443-.68-.882-1.363-1.29-2.07-.41-.708-.796-1.423-1.163-2.143l9.02-5.21 2.44 4.223zm29.98-66.71c4.705 0 9.31.74 13.695 2.093l-15.773 9.105-.73-1.266c-2.403-4.163-6.577-6.974-11.25-7.72 4.538-1.446 9.28-2.213 14.058-2.213zm1.628 67.292l-3.376 1.95c-.15.086-.287.19-.42.3L28.985 40.44c.16-.06.318-.126.47-.213l3.378-1.95c1.527-.882 2.052-2.843 1.17-4.37l-.594-1.03 10.034-5.792.594 1.028c.882 1.527 2.843 2.053 4.37 1.172l3.377-1.95c.152-.088.287-.194.418-.3l18.79 32.542c-.16.06-.317.123-.47.21l-3.377 1.95c-1.528.883-2.053 2.846-1.17 4.373l.593 1.03-10.037 5.79-.594-1.03c-.88-1.523-2.842-2.05-4.372-1.17zM37.483 60.032l-3.166 1.828-2.438-4.222 3.165-1.828 2.438 4.223zm11.63 15.27c.003-.012 0-.022.002-.033.05-.18.165-.332.327-.426l3.375-1.948c.336-.192.766-.077.96.257l2.435 4.22c.193.334.08.765-.255.957l-3.378 1.95c-.162.094-.35.118-.532.07-.01-.004-.018-.012-.03-.016l-2.905-5.032zm-21.47-37.187l-2.904-5.032c0-.01-.002-.02 0-.032.05-.182.165-.333.327-.426l3.376-1.95c.335-.193.765-.077.958.257l2.438 4.222c.193.334.078.763-.257.957l-3.374 1.95c-.162.093-.352.117-.533.07-.01-.004-.02-.012-.03-.016zm18.56-11.255l-2.438-4.222c-.093-.162-.118-.35-.07-.53.05-.182.165-.333.327-.427l3.378-1.95c.177-.1.378-.112.56-.054l2.905 5.033c-.04.185-.15.354-.328.457l-3.375 1.95c-.337.193-.767.08-.96-.256zM68.14 64.858c-.192-.334-.077-.764.257-.957l3.377-1.95c.178-.103.38-.112.56-.054l2.905 5.03c-.004.01 0 .022-.003.033-.05.18-.165.33-.328.425l-3.375 1.95c-.334.192-.763.078-.956-.256l-2.44-4.223zM64.925 44.19l-2.438-4.223 4.012-2.316 2.438 4.222-4.012 2.317zM26.708 9.68c2.037-1.175 4.35-1.797 6.69-1.798 4.78 0 9.234 2.57 11.622 6.706l1.598 2.768c-.158.06-.317.124-.47.21l-3.377 1.95c-.74.43-1.27 1.12-1.49 1.945s-.107 1.69.32 2.43l.594 1.027L32.16 30.71l-.595-1.028c-.883-1.526-2.843-2.052-4.37-1.17l-3.378 1.95c-.15.087-.287.192-.42.3L21.8 27.994c-1.79-3.1-2.266-6.713-1.34-10.173s3.146-6.348 6.248-8.14zm-8.08 5.915c-.198.52-.376 1.05-.522 1.596-1.094 4.09-.533 8.36 1.582 12.023l.732 1.267-15.78 9.11c2.087-9.074 6.866-17.505 13.99-23.995zm11.14 43.262l2.438 4.223-10.133 5.85-2.438-4.223 10.133-5.85zM50.03 96.562c-4.704 0-9.31-.74-13.693-2.093l15.77-9.107.733 1.268c2.402 4.16 6.574 6.973 11.248 7.72-4.54 1.446-9.28 2.212-14.058 2.212zm23.234-6.243c-2.038 1.174-4.352 1.797-6.69 1.797-4.78 0-9.236-2.57-11.624-6.706l-1.59-2.753c.16-.062.318-.126.47-.213l3.377-1.95c1.527-.88 2.053-2.843 1.17-4.372l-.593-1.028L67.82 69.3l.594 1.03c.882 1.527 2.843 2.053 4.37 1.17l3.377-1.95c.153-.088.288-.193.42-.302l1.59 2.757c1.79 3.102 2.267 6.713 1.34 10.173-.93 3.46-3.148 6.35-6.246 8.14zm21.688-28.27C92.61 70.793 87.88 78.486 81.33 84.427c.2-.527.384-1.066.532-1.62 1.097-4.087.534-8.356-1.583-12.022l-.73-1.265 15.803-9.123c-.127.55-.253 1.102-.4 1.652zM81.18 34.804l-10.133 5.85-2.438-4.222 10.132-5.85 2.438 4.222zm2.11-1.22l-2.44-4.222 8.163-4.712c.442.68.88 1.364 1.29 2.07.407.707.793 1.422 1.162 2.145l-8.176 4.72z"/>
</svg>
