<svg xmlns="http://www.w3.org/2000/svg" xmlns:dc="http://purl.org/dc/elements/1.1/" viewBox="0 0 100 100">

  <title property="dc:title">snowboarding</title>
  <desc property="dc:creator">rokma</desc>
  <title>snowboarding</title>

  <path d="M50 1C22.955 1 1 22.956 1 50c0 27.047 21.955 49 49 49 27.046 0 49-21.953 49-49C99 22.957 77.046 1 50 1zm-6.154 40.196l.257 1.03c.29 1.165.933 2.154 1.784 2.856l-3.11.775c-.235.06-.477.088-.716.088-1.358 0-2.537-.92-2.866-2.242l-.317-1.27c-.19-.767-.072-1.562.334-2.238.408-.676 1.054-1.155 1.82-1.346l2.957-.74c-.342.978-.4 2.045-.14 3.086zm-1.784 6.995c.422 0 .848-.052 1.26-.155l6.613-1.65c1.345-.335 2.483-1.176 3.2-2.367.45-.75.674-1.583.714-2.433.88 1.604 1.826 3.292 2.86 5.09 2.152 3.75 4.09 6.997 5.846 9.85-.486-.158-.995-.247-1.516-.247-.692 0-1.36.148-1.99.44-.04.02-.077.042-.12.062s-.085.033-.127.052l-6.177 2.882c-1.26.59-2.214 1.63-2.69 2.935-.17.472-.248.96-.28 1.445-1.59-2.973-3.426-6.315-5.582-10.11-1.24-2.187-2.412-4.182-3.527-6.033.482.148.988.24 1.515.24zm14.72 15.325l.45.964c.503 1.074 1.33 1.92 2.314 2.453l-2.92 1.362c-.396.185-.814.28-1.246.28-1.146 0-2.2-.673-2.683-1.71l-.554-1.19c-.334-.713-.37-1.516-.1-2.258s.81-1.335 1.53-1.67l2.757-1.284c-.144.997-.01 2.056.452 3.052zm6.9-3.215l.448.962c.34.728.396 1.534.158 2.264-.23.704-.705 1.253-1.34 1.55-.33.154-.677.23-1.045.23-1.1 0-2.135-.695-2.64-1.775l-.446-.965c-.67-1.432-.183-3.07 1.065-3.74.356-.146.728-.233 1.113-.233 1.15 0 2.203.668 2.686 1.708zm-8.3 10.516c.76 0 1.498-.165 2.193-.487l6.176-2.882c1.26-.588 2.215-1.63 2.69-2.935.168-.463.244-.938.28-1.416 2.38 3.644 4.303 6.39 5.85 8.598 1.522 2.177 2.625 3.746 3.412 5.114 1.216 2.102 1.55 4.728.895 7.02-.638 2.232-2.13 4.03-4.315 5.195-1.514.808-3.046 1.22-4.56 1.22-3.037 0-5.825-1.69-7.465-4.52-.844-1.456-1.727-3.313-2.953-5.88-1.2-2.516-2.703-5.666-4.777-9.727.772.442 1.653.698 2.574.698zm-4.153-31.46l.255 1.03c.196.78.1 1.58-.275 2.253-.36.645-.93 1.095-1.61 1.264-1.417.35-2.936-.68-3.32-2.22l-.258-1.03c-.196-.782-.096-1.582.276-2.253.334-.602.858-1.022 1.48-1.216.193-.04.388-.072.584-.072 1.36 0 2.537.923 2.867 2.243zm-.753-4.095c-.612-.274-1.276-.44-1.972-.44-.382 0-.765.046-1.137.14-.03.008-.06.025-.09.032-.058.014-.118.02-.176.033l-6.612 1.648c-1.348.337-2.484 1.178-3.2 2.37-.47.782-.698 1.657-.72 2.547-3.452-5.31-6.156-8.914-8.213-11.652-1.672-2.226-2.88-3.832-3.742-5.347-2.422-4.256-2.138-10.146 3.094-13.166 1.515-.876 3.12-1.32 4.763-1.32 3.405 0 6.752 1.973 8.526 5.024.88 1.516 1.69 3.375 2.804 5.948 1.46 3.36 3.418 7.863 6.673 14.185zm-27.28-2.015L5.42 63.385C4.145 59.144 3.45 54.652 3.45 50c0-15.72 7.84-29.633 19.807-38.066-3.383 4.048-3.178 9.728-.81 13.892.94 1.65 2.188 3.313 3.915 5.61 2.49 3.315 5.933 7.9 10.528 15.314l-2.934 5.03-10.76-18.535zm49.3-10.46l-5.92 9.914-10.84-18.276-6.894 11.826c-1.12-2.417-2.003-4.448-2.75-6.17-1.15-2.65-1.982-4.564-2.937-6.207-2.212-3.806-6.405-6.265-10.683-6.265-.736 0-1.46.094-2.178.23C36.283 5.03 42.96 3.45 50 3.45c25.668 0 46.55 20.883 46.55 46.55 0 4.137-.55 8.145-1.565 11.965l-22.49-39.18z"/>
</svg>
