<svg xmlns="http://www.w3.org/2000/svg" xmlns:dc="http://purl.org/dc/elements/1.1/" viewBox="0 0 100 100">

  <title property="dc:title">skateboarding</title>
  <desc property="dc:creator">rokma</desc>
  <title>skateboarding</title>

  <path d="M92.436 25.5c-5.994-10.38-15.56-18.184-26.94-21.974-.137-.045-.283-.03-.405.04l-16.85 9.73c-.236.137-.317.44-.18.676.137.236.438.316.676.18l16.657-9.616c11.06 3.74 20.352 11.353 26.187 21.46 5.834 10.104 7.78 21.96 5.49 33.406L80.412 69.02c-.236.137-.317.44-.18.676.09.16.257.248.428.248.084 0 .17-.02.247-.067l16.85-9.73c.124-.07.21-.19.238-.328 2.407-11.753.434-23.94-5.56-34.32zM51.94 86.03c-.136-.238-.44-.32-.676-.183l-16.657 9.617c-11.057-3.738-20.35-11.352-26.185-21.46C2.587 63.9.64 52.045 2.932 40.6l16.656-9.618c.237-.137.318-.44.18-.676-.137-.238-.44-.32-.675-.182l-16.85 9.73c-.124.07-.21.19-.238.328C-.403 51.932 1.57 64.12 7.565 74.5s15.56 18.185 26.94 21.975c.05.017.104.025.157.025.086 0 .17-.022.247-.066l16.85-9.73c.236-.136.317-.438.18-.675zm23.833-51.482l-10.63 6.137c-.238.137-.32.44-.182.676.092.16.26.248.43.248.083 0 .168-.02.247-.066l10.63-6.137c.237-.137.318-.44.182-.676-.138-.24-.44-.32-.677-.182zm3.838-1.073l10.632-6.137c.236-.137.317-.44.18-.676-.136-.238-.44-.318-.675-.18l-10.63 6.136c-.238.137-.32.44-.182.676.09.16.258.248.428.248.084 0 .17-.022.248-.067zM23.683 65.69c.084 0 .17-.022.247-.067l10.63-6.137c.236-.137.317-.44.18-.676-.137-.237-.44-.32-.676-.18l-10.63 6.136c-.237.136-.318.438-.18.676.09.16.257.247.428.247zm-3.59 1.007L9.46 72.834c-.237.137-.318.44-.18.676.09.16.257.248.428.248.084 0 .17-.02.247-.067l10.63-6.136c.237-.137.318-.44.18-.676-.135-.237-.438-.32-.674-.18zm56.895 1.143c-.136-.238-.438-.318-.676-.182-.235.137-.317.44-.18.676l1.348 2.334c1.798 3.114 2.275 6.742 1.345 10.216s-3.158 6.377-6.273 8.175c-6.43 3.71-14.678 1.498-18.39-4.93l-1.348-2.333c-.137-.237-.44-.32-.676-.18-.237.135-.318.437-.18.675l1.346 2.333c2.675 4.632 7.543 7.224 12.54 7.224 2.45 0 4.933-.624 7.202-1.935 3.344-1.93 5.735-5.046 6.734-8.774 1-3.728.486-7.624-1.444-10.967l-1.347-2.333zM53.124 27.497c-.236.137-.317.44-.18.676l16.992 29.433c.09.158.258.247.428.247.084 0 .17-.02.248-.066.236-.137.317-.44.18-.676L53.8 27.68c-.136-.24-.44-.318-.676-.18zm-30.666 3.7c.092.16.258.25.43.25.083 0 .168-.022.246-.067.237-.137.318-.44.182-.676l-.79-1.37c-3.712-6.428-1.502-14.678 4.926-18.39 3.114-1.8 6.742-2.277 10.216-1.346 3.473.93 6.376 3.158 8.173 6.272l.793 1.37c.137.238.44.317.676.182.236-.137.317-.44.18-.676l-.792-1.37c-1.93-3.344-5.046-5.736-8.775-6.735-3.73-.998-7.623-.486-10.966 1.445-6.9 3.986-9.274 12.843-5.29 19.743l.79 1.37zM46.19 71.81c.084 0 .17-.022.247-.067.237-.137.318-.44.182-.676l-16.993-29.43c-.137-.237-.44-.318-.676-.18-.236.136-.317.438-.18.675l16.992 29.43c.09.158.257.247.428.247zM3.076 37.662c.043.012.087.017.13.017.218 0 .418-.145.478-.364C9.367 16.516 28.414 1.99 50 1.99c3.975 0 7.927.487 11.748 1.448.267.067.534-.095.602-.36.065-.265-.095-.533-.36-.6C58.09 1.498 54.058 1 50 1 27.967 1 8.53 15.826 2.73 37.055c-.074.264.082.536.346.608zm93.88 24.552c-.265-.068-.535.085-.605.35C90.707 83.434 71.647 98.01 50 98.01c-4.222 0-8.41-.548-12.448-1.63-.263-.064-.536.087-.606.352-.07.264.086.534.35.605C41.416 98.44 45.69 99 50 99c22.092 0 41.545-14.877 47.306-36.178.07-.263-.084-.535-.35-.607zM49.282 19.553c-.524-.91-1.79-1.252-2.703-.725l-2.144 1.238c-.458.264-.785.69-.922 1.202-.137.51-.066 1.045.198 1.502l1.237 2.143L30.8 33.08l-1.236-2.143c-.525-.91-1.79-1.253-2.704-.724l-2.143 1.237c-.458.264-.786.69-.922 1.202-.137.51-.067 1.044.197 1.502l2.97 5.144c.352.61 1.01.99 1.716.99.346 0 .688-.092.99-.265l2.14-1.238c.46-.264.787-.69.923-1.202.138-.51.068-1.045-.197-1.502l-1.237-2.142 14.146-8.167 1.237 2.145c.352.61 1.01.99 1.716.99.345 0 .687-.092.988-.266l2.143-1.238c.458-.264.786-.69.922-1.203.137-.51.066-1.045-.2-1.503l-2.97-5.144zM31.677 36.576c.132.23.167.495.1.75-.07.256-.233.47-.462.6l-2.143 1.238c-.457.266-1.09.093-1.352-.362l-2.97-5.144c-.133-.23-.167-.495-.1-.75.07-.256.233-.47.462-.602l2.142-1.237c.15-.088.32-.134.494-.134.354 0 .683.19.858.495l2.972 5.146zM51.03 26.544L48.89 27.78c-.46.267-1.09.093-1.352-.36l-2.97-5.146c-.132-.23-.167-.495-.1-.75.07-.255.233-.47.462-.6l2.143-1.238c.152-.087.322-.133.495-.133.353 0 .682.19.858.495l2.97 5.144c.274.473.11 1.08-.362 1.352zm-.935 44.23l-2.143 1.238c-.458.264-.786.69-.923 1.2-.138.513-.068 1.047.196 1.504l2.97 5.144c.352.61 1.01.99 1.716.99.346 0 .688-.092.99-.267l2.142-1.237c.945-.546 1.27-1.758.725-2.703l-1.24-2.145 14.147-8.167 1.238 2.145c.352.61 1.01.99 1.716.99.347 0 .69-.09.99-.266l2.142-1.238c.458-.264.786-.69.923-1.202.137-.51.066-1.044-.198-1.502l-2.97-5.144c-.525-.91-1.79-1.255-2.704-.724l-2.144 1.237c-.46.264-.785.69-.923 1.2-.137.513-.066 1.046.198 1.504l1.237 2.144-14.146 8.167-1.237-2.143c-.526-.91-1.792-1.252-2.705-.722zm17.707-7.936c-.132-.23-.167-.495-.1-.75s.233-.47.462-.603l2.144-1.237c.15-.086.32-.133.493-.133.355 0 .684.19.86.495l2.97 5.143c.272.474.11 1.08-.363 1.354l-2.143 1.237c-.457.264-1.09.09-1.353-.363l-2.968-5.142zM53.428 74.566l1.484 2.57c.272.474.11 1.08-.363 1.354l-2.144 1.237c-.458.263-1.09.093-1.354-.362l-2.97-5.144c-.13-.228-.166-.494-.098-.75.07-.256.232-.47.46-.602l2.145-1.237c.15-.085.32-.132.492-.132.354 0 .683.19.86.495l1.483 2.57.003.003z"/>
</svg>
