<svg xmlns="http://www.w3.org/2000/svg" xmlns:dc="http://purl.org/dc/elements/1.1/" viewBox="-99.5 520.5 100 100">
  
  <title property="dc:title">snowboarding</title>
  <desc property="dc:creator">rokma</desc>
  <title>snowboarding</title>

  <path d="M-49.5 521.618c-27.02 0-49 21.98-49 49 0 1.67.106 3.414.226 5.202.018.27.252.467.52.457.27-.02.475-.252.458-.522-.118-1.77-.224-3.496-.224-5.137 0-26.478 21.542-48.02 48.02-48.02s48.02 21.542 48.02 48.02c0 2.128-.202 4.04-.415 6.066-.03.27.167.51.436.538l.053.003c.248 0 .46-.187.487-.44.216-2.05.42-3.987.42-6.167 0-27.02-21.98-49-49-49zm26.228 15.62c-.16-.32-.482-.53-.83-.542-.347-.01-.704.165-.89.478l-5.86 9.864-11.553-19.358c-.176-.294-.5-.477-.85-.477-.334.005-.67.2-.838.486l-7.817 13.4c-.136.234-.057.534.176.67.235.136.534.058.67-.176l7.817-13.4 11.974 20.063c.088.148.248.24.42.24.173 0 .334-.092.42-.24l6.28-10.572L-2.71 580.78c-5.82 25.988-27.78 37.622-46.96 37.623l-.47-.002c-17.886-.174-40.823-10.454-46.6-38.847v-.112l16.528-29.928 11.858 20.375c.087.15.25.243.423.243.175 0 .336-.094.424-.245l1.7-2.952c.135-.234.054-.534-.18-.67-.236-.134-.535-.053-.67.18l-1.278 2.22-11.433-19.645c-.174-.3-.49-.48-.857-.486-.352.004-.677.198-.847.506l-16.53 29.93c-.08.144-.122.308-.122.473v.113c0 .066.007.133.02.195 5.893 28.967 29.298 39.453 47.55 39.632l.48.002c19.57 0 41.978-11.87 47.916-38.386.05-.22.02-.45-.078-.65l-21.438-43.108zm-49.265 16.84c3.088 4.15 7.756 10.423 14.312 21.95 6.907 12.167 10.374 19.436 12.672 24.253.42.843.79 1.617 1.154 2.388.616 1.3 1.147 2.42 1.722 3.357 2.166 3.73 5.875 5.956 9.924 5.956 2.133 0 4.154-.535 5.825-1.54 2.918-1.58 4.898-3.978 5.727-6.938.867-3.1.423-6.527-1.175-9.15-.67-1.245-1.552-2.525-2.667-4.146l-.867-1.26c-3.063-4.373-7.692-10.98-14.644-22.958-6.322-11.217-9.5-18.106-11.994-23.88l-.47-1.082c-.86-1.993-1.54-3.567-2.316-4.927-2.237-3.887-6.52-6.398-10.91-6.398-2.108 0-4.242.574-6.177 1.664-6.692 3.874-7.154 11.633-4.188 16.972.777 1.36 1.795 2.71 3.084 4.42l.99 1.32zm.6-21.86c1.782-1.004 3.75-1.535 5.69-1.535 4.047 0 7.996 2.318 10.06 5.904.75 1.31 1.42 2.863 2.27 4.83l.467 1.08c2.504 5.798 5.696 12.716 12.043 23.978 6.976 12.02 11.62 18.648 14.69 23.032l.865 1.256c1.1 1.596 1.966 2.856 2.625 4.078 1.472 2.418 1.876 5.557 1.08 8.4-.755 2.698-2.57 4.89-5.267 6.35-1.538.925-3.385 1.413-5.34 1.413-3.695 0-7.088-2.043-9.083-5.478-.554-.9-1.074-2-1.705-3.333-.34-.718-.71-1.5-1.13-2.34-2.3-4.82-5.777-12.107-12.7-24.307-6.587-11.58-11.276-17.88-14.38-22.05l-.99-1.323c-1.27-1.684-2.27-3.013-3.015-4.313-2.738-4.93-2.327-12.086 3.82-15.643zm23.06 53.84l.424.883c.73 1.522 2.292 2.504 3.98 2.504.662 0 1.303-.146 1.904-.435l5.744-2.756c2.192-1.052 3.12-3.69 2.068-5.884l-.424-.883c-.73-1.52-2.292-2.503-3.98-2.503-.662 0-1.303.146-1.904.435l-5.743 2.754c-2.19 1.052-3.12 3.69-2.067 5.884zm8.235-7.756c.468-.225.966-.338 1.48-.338 1.314 0 2.53.764 3.097 1.947l.424.884c.817 1.705.095 3.758-1.61 4.576l-5.743 2.755c-.468.225-.966.338-1.48.338-1.314 0-2.53-.764-3.097-1.947l-.424-.884c-.818-1.705-.096-3.758 1.61-4.576l5.742-2.754zm.373 7.64c.08.048.166.07.25.07.168 0 .33-.086.422-.24.138-.233.062-.533-.17-.67-1.526-.908-2.56-2.98-2.304-4.617.042-.268-.142-.52-.41-.56-.27-.042-.518.142-.56.41-.315 2.03.902 4.495 2.773 5.608zm-20.773-20.545c.538 1.886 2.28 3.204 4.24 3.204.407 0 .814-.056 1.21-.168l6.125-1.744c2.34-.666 3.7-3.11 3.034-5.45l-.27-.942c-.536-1.886-2.28-3.204-4.24-3.204-.406 0-.813.057-1.208.17l-6.127 1.743c-2.337.667-3.698 3.11-3.033 5.45l.27.942zm3.034-5.448l6.127-1.745c.308-.087.625-.132.94-.132 1.525 0 2.88 1.025 3.298 2.492l.27.942c.517 1.82-.542 3.72-2.36 4.24l-6.126 1.743c-.31.087-.626.132-.942.132-1.523 0-2.88-1.024-3.297-2.492l-.268-.94c-.518-1.822.54-3.723 2.36-4.24zm5.523 5.968c.138 0 .275-.058.373-.17.176-.208.15-.517-.054-.692-1.34-1.143-2.012-3.348-1.5-4.915.083-.256-.057-.533-.314-.617-.26-.087-.534.056-.618.313-.635 1.944.154 4.564 1.795 5.964.092.08.205.118.318.118z"/>
</svg>
