<svg xmlns="http://www.w3.org/2000/svg" xmlns:dc="http://purl.org/dc/elements/1.1/" viewBox="0 0 100 100">

  <title property="dc:title">board-rider</title>
  <desc property="dc:creator">rokma</desc>
  <title>board-rider</title>

  <path d="M50.264 1.5c-26.743 0-48.5 21.757-48.5 48.5 0 1.565.076 3.147.225 4.703.025.274.26.464.544.45.275-.026.476-.27.45-.546-.146-1.524-.22-3.074-.22-4.606 0-26.19 21.31-47.5 47.5-47.5s47.5 21.31 47.5 47.5c0 13.046-5.188 25.212-14.61 34.26-.2.19-.205.507-.014.706.098.102.23.153.36.153.125 0 .25-.047.347-.14 9.62-9.237 14.917-21.66 14.917-34.98 0-26.743-21.757-48.5-48.5-48.5zm27.67 87.104c-8.102 5.82-17.67 8.896-27.67 8.896-22.108 0-41.113-15.007-46.217-36.493-.064-.27-.333-.44-.602-.37-.27.062-.435.332-.37.6C8.284 83.178 27.69 98.5 50.264 98.5c10.21 0 19.98-3.142 28.252-9.084.224-.16.275-.474.114-.698-.16-.225-.473-.277-.697-.114zm5.004-1.407l-39.5-14.666c-.257-.097-.547.036-.643.296-.096.26.036.547.295.643l39.5 14.665c.058.02.116.03.174.03.203 0 .394-.123.47-.325.094-.26-.038-.547-.296-.643zM36.125 71.173c.203 0 .394-.124.47-.325.095-.26-.037-.547-.295-.644L1.91 57.394c-.254-.096-.545.036-.642.295-.096.258.036.546.294.643l34.39 12.81c.056.02.115.03.173.03zM81.5 45.48c-3.202-7.262-21.672-2.494-39.53 2.115-1.184.305-2.364.61-3.537.91 4.54-15.603 12.443-20.647 18.325-22.12.27-.066.43-.337.364-.605-.068-.268-.345-.433-.606-.363-6.002 1.5-14.008 6.53-18.73 21.775-.892-3.465-2.933-9.294-5.59-14.583-.123-.247-.42-.346-.67-.223-.247.124-.346.424-.222.67 3.162 6.294 5.506 13.59 5.917 16.225.002.01.01.02.01.03.005.017.012.03.018.048.02.062.052.118.094.166.007.008.008.02.016.028.004.004.01.005.015.01.054.05.118.09.19.113.018.006.036.006.054.01.032.007.063.018.097.018.025 0 .052-.002.078-.006.01-.002.017-.01.027-.01.005-.002.012 0 .02 0 1.45-.37 2.912-.748 4.38-1.127 16.643-4.297 35.508-9.164 38.363-2.68 2.32 5.262-19.25 21.663-27.76 27.538-.193.135-.268.387-.177.605.092.218.317.344.554.3.14-.027 14.14-2.58 17.19 2.09.096.147.255.228.418.228.095 0 .19-.026.273-.08.232-.152.297-.463.147-.693-2.66-4.067-11.86-3.4-16.083-2.853 6.96-4.94 29.105-21.295 26.355-27.537zM41.9 76.397c.093.157.26.244.43.244.087 0 .175-.02.255-.07.238-.14.315-.447.174-.685-.166-.28-16.658-28.21-13.82-40.61 2.106-9.208 13.293-13.976 27.834-11.86.267.04.527-.15.567-.423.04-.273-.15-.527-.422-.566-15.09-2.197-26.724 2.88-28.953 12.628C25.04 47.84 41.212 75.237 41.902 76.397zM15.807 59.67c.006.27.23.488.5.488h.094c2.646 0 6.16 2.69 6.195 2.718.09.07.197.104.306.104.086 0 .17-.02.248-.065.175-.1.274-.295.25-.495-1.15-9.398-3.152-34.212 1.31-36.14 1.198-.515 2.838 1.05 4.005 2.456.176.212.49.242.704.065.212-.176.242-.49.065-.703-2.043-2.46-3.734-3.356-5.17-2.734-5.543 2.392-2.796 29.468-2.04 36.062-1.33-.88-3.845-2.31-5.977-2.268-.275.007-.494.236-.488.512zm15.546-45.977c-.167.22-.125.53.093.7.22.168.533.126.7-.092.066-.083 6.782-8.304 25.88 4.284.084.056.18.083.274.083.162 0 .32-.08.417-.225.152-.23.09-.54-.142-.693-19.947-13.147-26.935-4.434-27.222-4.057zm36.085 1.12c-5.2 0-9.438 4.23-9.445 9.43-.005 2.522.974 4.896 2.755 6.684s4.152 2.773 6.675 2.777h.018c5.2 0 9.44-4.23 9.447-9.43.006-5.21-4.226-9.454-9.45-9.462zm0 17.89v.5l-.015-.5c-2.256-.003-4.376-.885-5.968-2.483-1.593-1.598-2.468-3.72-2.464-5.977.01-4.65 3.797-8.432 8.46-8.432 4.657.01 8.44 3.804 8.435 8.46-.007 4.65-3.796 8.433-8.446 8.433zM55.22 12.6c-.147.235-.074.544.16.69l4.76 2.948c.08.05.172.075.263.075.168 0 .33-.084.426-.237.146-.234.073-.543-.16-.688l-4.76-2.95c-.232-.144-.543-.073-.69.163zm2.56-1.635c-.147.234-.074.542.16.688l4.758 2.95c.082.05.173.074.264.074.167 0 .33-.084.425-.237.146-.234.073-.542-.16-.688l-4.76-2.95c-.232-.143-.54-.072-.688.163zm9.14 1.856l-4.757-2.948c-.23-.145-.54-.074-.687.162-.146.234-.073.542.16.688l4.76 2.95c.08.05.172.074.263.074.167 0 .33-.084.425-.237.146-.236.073-.544-.16-.69z"/>
</svg>
