<svg xmlns="http://www.w3.org/2000/svg" xmlns:dc="http://purl.org/dc/elements/1.1/" viewBox="0 0 100 100">

  <title property="dc:title">surfing</title>
  <desc property="dc:creator">rokma</desc>
  <title>surfing</title>

  <path d="M50 1C22.955 1 1 22.956 1 50c0 27.047 21.955 49 49 49 27.046 0 49-21.953 49-49C99 22.957 77.046 1 50 1zM4.426 40.508c2.046-9.835 7.212-18.534 14.402-25.032.087 1.908.49 8.606 2.08 17.41-10.366 6.58-15.32 7.503-16.482 7.622zm54.987 54.32c-1.643-1.184-6.205-4.57-10.275-8.46-5.143-4.916-10.132-11.847-14.83-20.6-10.925-20.365-12.745-44.884-13.012-49.994 4.312 2.763 24.616 16.423 36.932 36.122 5.34 8.54 8.78 16.097 10.517 23.102 1.357 5.463 2.03 11.105 2.24 13.118L59.414 94.83zm4.09-46.69c-6.436-17.103 9.823-24.92 20.13-20.644 0 0-6.806-10.57-19.733-12.165C52.03 13.862 44.632 17 35.337 23.08c-7.354-6.058-13.086-9.61-13.584-9.915-.027-.017-.064-.037-.095-.055C29.512 7.062 39.34 3.45 50 3.45c25.668 0 46.55 20.883 46.55 46.55 0 6.66-1.416 12.993-3.946 18.73-6.09-.962-22.832-3.927-29.1-20.592zM61.48 82.55c-.34-.586-1.09-.784-1.675-.444-.586.34-.785 1.09-.445 1.674l3.078 5.306c.227.393.64.61 1.06.61.21 0 .42-.053.614-.165.586-.34.785-1.088.445-1.673L61.48 82.55zm3.87-8.742c-.245-.63-.956-.945-1.586-.7-.63.244-.944.953-.7 1.585l2.24 5.792c.187.485.65.783 1.142.783.147 0 .297-.026.442-.083.63-.244.944-.953.7-1.585l-2.24-5.792zm-13.596 7.446c-.427-.526-1.2-.604-1.724-.18-.525.428-.605 1.2-.18 1.725l3.915 4.817c.242.3.597.452.952.452.27 0 .545-.09.77-.274.526-.427.606-1.198.18-1.724l-3.913-4.818z"/>
</svg>
