<svg xmlns="http://www.w3.org/2000/svg" xmlns:dc="http://purl.org/dc/elements/1.1/" viewBox="181.9 1.9 100 100">
  
  <title property="dc:title">surfing</title>
  <desc property="dc:creator">rokma</desc>
  <title>surfing</title>

  <path d="M239.408 95.985c-.088 0-.175-.024-.252-.07 0 0-.32-.188-.91-.583-3.48-2.334-15.678-11.402-26.474-30.104-10.915-18.903-11.097-41-11.023-45.236-.008-.28.056-1.275 1.17-1.918.39-.227.795-.342 1.198-.342.257 0 .647.05 1.044.285 3.71 2.058 22.757 13.274 33.667 32.167 10.794 18.698 12.55 33.797 12.832 37.98.047.707.05 1.08.05 1.08.002.102-.03.203-.087.288-1.757 2.53-8.128 6.208-11.177 6.452h-.04zm-36.29-77.262c-.227 0-.464.07-.703.21-.625.36-.68.852-.677 1.046-.073 4.222.107 26.077 10.89 44.754 10.69 18.517 22.733 27.472 26.17 29.776.34.23.586.385.726.472 2.742-.328 8.52-3.665 10.195-5.887-.006-.165-.02-.456-.046-.864-.277-4.128-2.013-19.037-12.702-37.55-10.778-18.667-29.62-29.76-33.287-31.795-.19-.113-.373-.162-.567-.162z"/>
  <path d="M243.52 90.626c-.17 0-.336-.088-.428-.248l-2.89-5.003c-.136-.237-.054-.54.183-.676.235-.14.54-.057.676.18l2.89 5.003c.136.237.055.54-.182.676-.078.045-.163.066-.247.066zM246.338 80.75c-.147 0-.293-.066-.39-.19l-3.584-4.603c-.167-.215-.13-.527.087-.694.215-.17.527-.13.695.086l3.583 4.6c.168.216.13.528-.086.695-.09.07-.198.105-.304.105zM233.56 88.127c-.19 0-.37-.11-.453-.292l-2.377-5.297c-.112-.25 0-.542.25-.654.247-.113.54 0 .653.25l2.377 5.297c.112.25 0 .543-.25.655-.065.028-.133.042-.2.042z"/>
  <path d="M233.59 100.9c-14.126 0-27.126-5.207-36.63-14.676-9.058-9.026-14.045-20.99-14.044-33.69 0-.136.055-.265.152-.358.097-.093.233-.14.364-.137 4.823.197 9.937-1.74 16.11-6.115.224-.16.534-.106.69.117.16.223.107.532-.117.69-6.056 4.292-11.162 6.312-15.993 6.312h-.214c.13 12.245 5.002 23.763 13.75 32.48 9.316 9.28 22.07 14.387 35.93 14.387h.204c26.148-.093 38.222-21.972 40.056-25.63-20.273-5.964-28.714-20.384-28.074-32.123.317-5.838 3.117-10.82 7.487-13.33 3.752-2.156 8.274-2.257 12.873-.323-3.81-6.14-8.745-9.844-14.684-11.015-8.165-1.61-18.26 1.75-27.7 9.22-.215.17-.526.133-.696-.082-.17-.214-.133-.525.08-.695 9.67-7.65 20.06-11.082 28.506-9.416 6.665 1.315 12.103 5.644 16.162 12.868.106.19.076.43-.075.585-.15.16-.388.197-.583.097-4.788-2.455-9.542-2.592-13.39-.383-4.08 2.34-6.693 7.024-6.993 12.526-.624 11.454 7.768 25.567 27.923 31.28.138.038.252.135.313.265.06.13.062.28.004.41-.12.267-12.182 26.63-41.206 26.734h-.205z"/>
  <path d="M276.028 72.523c-.07 0-.138-.015-.205-.045-.25-.113-.358-.407-.245-.655 2.864-6.27 4.316-12.975 4.316-19.924 0-12.825-4.994-24.88-14.062-33.95-9.068-9.067-21.124-14.06-33.947-14.06-25.852 0-46.925 20.216-47.974 46.026-.01.273-.23.486-.514.475-.273-.01-.485-.24-.474-.514C183.992 23.536 205.5 2.9 231.882 2.9h.003c13.088 0 25.393 5.096 34.647 14.35s14.352 21.56 14.352 34.65c0 7.09-1.482 13.933-4.406 20.334-.082.182-.262.29-.45.29z"/>
</svg>
