<svg xmlns="http://www.w3.org/2000/svg" xmlns:dc="http://purl.org/dc/elements/1.1/" viewBox="0 0 100 100">

  <title property="dc:title">board-rider</title>
  <desc property="dc:creator">rokma</desc>
  <title>board-rider</title>

  <path fill-rule="evenodd" clip-rule="evenodd" d="M50 1C22.954 1 1 22.955 1 50s21.954 49 49 49 49-21.953 49-49S77.046 1 50 1zM8.683 60.78c-1.426-.52-2.16-2.094-1.642-3.52.52-1.425 2.097-2.158 3.522-1.64l10.28 3.74-3.67-2.904c-1.188-.942-1.39-2.67-.447-3.858.94-1.19 2.667-1.39 3.857-.448l2.702 2.14-.293-.924c-3.267-10.285-8.003-24.043-1.585-30.46 1.408-1.406 3.157-1.168 4.853-.23 1.596.88 3.967 3.086 5.805 5.45-1.405 1.155-2.844 2.75-3.53 3.968-1.074-1.306-2.5-2.97-4.01-3.958-2.272 4.302 1.606 16.97 3.702 23.567 1.94 6.105 2.744 8.634 1.63 10.48-.08.13-.18.243-.274.36l3.022 1.1 3.953 7.282L8.683 60.78zM78.96 83.437c-.406 1.115-1.46 1.808-2.582 1.808-.312 0-.628-.054-.938-.166L46.91 74.693c.46-1.243.072-2.713-.734-3.886-.782-1.14-1.433-2.09-2.01-2.957l6.24 2.272c.114-.33.274-.6.443-.772.672-.686.775-.76 1.227-1.164 10.29-9.256 16.594-15.883 18.755-19.72-3.63-1-16.7.642-30.426 4.64-1.455.426-2.98-.412-3.404-1.87-.1-.342-1.11-4.533-2.083-6.855-.683-3.36.034-7.366 1.707-8.753.974 1.88 2.104 3.75 2.854 5.618C41.3 37.09 43.974 33.5 47.17 31.1c.576-.436 1.173-.818 1.78-1.173 0 0-11.583-.648-15.34 6.73C30.374 43 36.874 58.5 44.916 71.545c.795 1.29.872 2.876-.347 3.778-.49.367-1.065.54-1.635.54-.84 0-1.733-.336-2.207-1.106C32.5 61.375 25.52 42.433 28.625 35.125c2.45-5.77 7.228-8.123 12.188-9.75 4-1.312 9.877-1.47 14.067-.396-2.068-2.39-5.125-5.605-9.317-6.292-3.786-.623-6.696.794-8.312 1.812-1.282.808-3.416 1.687-4.395.53-1.375-1.625-.264-3.392.984-4.253 2.412-1.665 8.535-5.026 15.795-2.306 3.54 1.328 7.103 4.16 9.484 7l-3.692-6.887 6.864 5.422-4.146-7.248 11.085 8.746c1.51.88 2.72 2.19 3.475 3.81.98 2.095 1.08 4.445.29 6.618-1.24 3.407-4.51 5.697-8.135 5.697-1.01 0-2.007-.176-2.96-.523-2.026-.737-3.663-2.175-4.668-4.064-2.435.082-4.704.9-6.767 2.45-3.168 2.378-5.746 6.507-7.083 11.11 5.68-1.46 11.597-2.653 16.513-3.3 11.34-1.49 14.365.197 15.734 1.833.566.677 1.74 2.544.396 5.253-2.398 4.834-9.58 12.03-16.11 18.083 3.062-.2 6.638.026 9.368 2.89 1.047 1.098 1.005 2.836-.094 3.882-.53.508-1.213.76-1.895.76-.724 0-1.447-.285-1.987-.852-1.09-1.143-2.68-1.446-4.852-1.37l16.86 6.138c1.427.518 2.162 2.093 1.643 3.52z"/>
</svg>
